<svg xmlns="http://www.w3.org/2000/svg" xmlns:xlink="http://www.w3.org/1999/xlink"><defs><symbol id="icon-amex-1448c" viewBox="0 0 752 471"><path fill="#2557D6" d="M554.594 130.608l-14.52 35.04h29.12l-14.6-35.04zM387.03 152.32c2.738-1.42 4.35-4.514 4.35-8.355 0-3.764-1.694-6.49-4.432-7.77-2.492-1.42-6.328-1.585-10.006-1.585h-25.978v19.523h25.63c4.106 0 7.537-.06 10.436-1.812zM54.142 130.61l-14.357 35.04h28.8l-14.443-35.04zm668.423 224.47h-40.742v-18.852H722.4c4.024 0 6.84-.525 8.538-2.177a7.706 7.706 0 0 0 2.494-5.732c0-2.562-1.023-4.596-2.578-5.813-1.53-1.342-3.76-1.953-7.434-1.953-19.81-.67-44.523.61-44.523-27.21 0-12.75 8.13-26.173 30.27-26.173h42.025v-17.493h-39.045c-11.783 0-20.344 2.81-26.406 7.18v-7.18h-57.75c-9.234 0-20.075 2.28-25.202 7.18v-7.18H499.655v7.18c-8.207-5.897-22.057-7.18-28.447-7.18H403.18v7.18c-6.492-6.26-20.935-7.18-29.734-7.18h-76.134l-17.42 18.775-16.318-18.775H149.847v122.675h111.586l17.95-19.076 16.91 19.076 68.78.06v-28.86h6.764c9.125.145 19.89-.223 29.387-4.31v33.106h56.73v-31.976h2.737c3.493 0 3.84.146 3.84 3.62v28.35h172.343c10.94 0 22.38-2.787 28.712-7.854v7.853h54.668c11.375 0 22.485-1.587 30.938-5.652v-22.853c-5.12 7.462-15.11 11.245-28.625 11.245zm-349.83-28.967h-26.326V355.6h-41.007l-25.978-29.1-26.997 29.102h-83.57v-87.914h84.856l25.955 28.818 26.834-28.818h67.414c16.743 0 35.555 4.617 35.555 28.963 0 24.422-18.297 29.463-36.74 29.463zm126.588-3.986c2.98 4.29 3.41 8.297 3.496 16.047v17.428h-21.183v-10.998c0-5.29.512-13.12-3.41-17.21-3.08-3.148-7.78-3.9-15.48-3.9h-22.545v32.108h-21.198v-87.914h48.706c10.685 0 18.462.472 25.386 4.148 6.658 4.006 10.848 9.494 10.848 19.523-.002 14.03-9.4 21.19-14.953 23.388 4.694 1.725 8.532 4.818 10.333 7.38zm87.15-36.258H537.07v15.98h48.196v17.94H537.07v17.49l49.403.08v18.24H516.06v-87.913h70.413v18.182zm54.213 69.73h-41.09v-18.852h40.926c4.002 0 6.84-.527 8.62-2.178 1.448-1.36 2.49-3.336 2.49-5.73 0-2.564-1.128-4.598-2.573-5.818-1.616-1.34-3.843-1.948-7.515-1.948-19.73-.673-44.44.606-44.44-27.212 0-12.752 8.048-26.174 30.165-26.174h42.297v18.71h-38.703c-3.836 0-6.33.145-8.45 1.59-2.314 1.424-3.17 3.536-3.17 6.323 0 3.317 1.962 5.575 4.614 6.55 2.228.77 4.617.996 8.21.996l11.36.308c11.45.274 19.313 2.25 24.092 7.07 4.105 4.23 6.31 9.577 6.31 18.624 0 18.913-11.867 27.742-33.144 27.742zm110.506-11.762zm-274.13-56.55c-2.55-1.51-6.312-1.59-10.067-1.59h-25.98v19.745h25.632c4.104 0 7.594-.144 10.414-1.812 2.735-1.645 4.372-4.677 4.372-8.437s-1.637-6.482-4.37-7.906zm235.722-1.59c-3.838 0-6.39.144-8.537 1.587-2.227 1.426-3.08 3.537-3.08 6.326 0 3.316 1.878 5.573 4.61 6.55 2.23.77 4.616.996 8.13.996l11.437.303c11.537.284 19.242 2.26 23.938 7.08.855.667 1.37 1.42 1.957 2.173V285.7h-38.454l-.002-.003zm-339.314 0h-27.51v22.39h27.266c8.105 0 13.146-4.006 13.15-11.61-.004-7.69-5.29-10.78-12.906-10.78zm-183.598 0v15.983h46.315v17.94h-46.315v17.49h51.87l24.1-25.792-23.076-25.62h-52.894zm135.45 61.478v-70.482l-32.392 34.673 32.39 35.81zm-133.673-141.15v15.147H367.91l-.082-32.046h3.41c2.39.083 3.085.302 3.085 4.23v27.817h91.164v-7.46c7.352 3.923 18.788 7.46 33.837 7.46h38.353l8.21-19.522h18.196l8.026 19.522h73.906V202.63l11.19 18.543h59.226V98.59h-58.61v14.477l-8.208-14.477H589.47v14.477l-7.537-14.477h-81.24c-13.6 0-25.55 1.89-35.207 7.158V98.59h-56.064v7.158c-6.146-5.43-14.52-7.158-23.826-7.158H180.784l-13.742 31.662-14.114-31.662h-64.51v14.477l-7.09-14.477H26.313L.762 156.874v46.62l37.78-87.893h31.346l35.88 83.218V115.6h34.435l27.61 59.626 25.365-59.625h35.126v87.895H206.68l-.08-68.837-30.593 68.837h-18.524l-30.67-68.898v68.898H83.898l-8.107-19.605H31.865l-8.19 19.605H.762v17.682h36.05l8.127-19.523h18.197l8.106 19.523h70.925V206.25l6.33 14.99h36.82l6.33-15.215zm277.75-80.177c6.82-7.016 17.5-10.25 32.04-10.25h20.424v18.832h-19.996c-7.696 0-12.047 1.14-16.233 5.208-3.6 3.7-6.066 10.696-6.066 19.908 0 9.417 1.88 16.206 5.8 20.64 3.248 3.48 9.152 4.534 14.705 4.534h9.478l29.733-69.12h31.61l35.72 83.134v-83.133h32.123l37.085 61.213v-61.213h21.61v87.89H667.54l-39.99-65.967v65.968h-42.967l-8.208-19.605h-43.827l-7.966 19.604h-24.69c-10.253 0-23.237-2.258-30.59-9.722-7.415-7.462-11.27-17.57-11.27-33.553-.004-13.038 2.3-24.954 11.37-34.37zm-43.394-10.25h21.526v87.894h-21.526V115.6zm-97.055 0h48.526c10.78 0 18.727.285 25.547 4.21 6.674 3.926 10.676 9.658 10.676 19.46 0 14.015-9.394 21.254-14.865 23.43 4.614 1.75 8.56 4.84 10.438 7.4 2.98 4.372 3.492 8.277 3.492 16.126v17.267h-21.28l-.08-11.084c0-5.29.51-12.897-3.33-17.123-3.08-3.09-7.78-3.763-15.378-3.763H350.05v31.97h-21.098V115.6zm-85.048 0h70.48v18.303H265v15.843h48.193v18.017H265v17.553h49.38v18.177H243.9V115.6z"/></symbol><symbol id="icon-aura-3e80c" viewBox="0 0 750 471"><path d="M90.2 47.8h569.4l.6 177.4c-68.7-26.1-287.4-88.7-570-10.7z" fill="#2c328b" fill-rule="evenodd"/><path d="M90.2 424.2h569.4v-142c-102.7-34.4-285.2-85.9-569.4-12.9z" fill="#fff100" fill-rule="evenodd"/><path d="M659.6 282.3c-102.7-34.4-285.2-85.9-569.4-12.9v-54.9c282.6-78 501.3-15.4 570 10.7z" fill="#ec1c24" fill-rule="evenodd"/><path d="M271.6 181.1c14.1-38.9 46.3-72.6 102.4-72.1s93.4 32.3 103.5 74.2c-72.2-7.6-120.4-8.9-205.9-2.1z" fill="#fff100" fill-rule="evenodd"/><path d="M217.4 352.3l38.1-56.8h14.1l40.6 56.8h-15l-11.6-17.2h-41.3l-10.9 17.2zm28.7-23.3h33.7l-10.4-15.7a118 118 0 0 1-7-11.8 51.3 51.3 0 0 1-5.4 10.9L246.1 329zm131 23.3v-6q-8.4 7-22.8 7a48.6 48.6 0 0 1-11.9-1.4 22.2 22.2 0 0 1-8.2-3.5 11.2 11.2 0 0 1-3.8-5.2 21.2 21.2 0 0 1-.7-6.5v-25.5h12.2V334c0 3.7.3 6.1.7 7.4a8.6 8.6 0 0 0 4.9 4.3 23.9 23.9 0 0 0 9.2 1.6 32.3 32.3 0 0 0 10.3-1.6c3.2-1.1 5.5-2.5 6.8-4.4s2-4.5 2-8v-22H388v41.2zm40.5 0v-41.1h11v6.2a23.1 23.1 0 0 1 7.8-5.8 21.2 21.2 0 0 1 7.8-1.4 37.6 37.6 0 0 1 12.5 2.2l-4.2 6.5a27.3 27.3 0 0 0-8.9-1.5 18 18 0 0 0-7.2 1.4 9 9 0 0 0-4.5 3.8 16.5 16.5 0 0 0-2 8.1v21.5zm103.8-5.1a59 59 0 0 1-13 4.7 63.9 63.9 0 0 1-13.5 1.4c-7.9 0-14-1.1-18.2-3.3s-6.4-5-6.4-8.5a7.7 7.7 0 0 1 2.4-5.5 17.1 17.1 0 0 1 6.3-4 43.1 43.1 0 0 1 8.8-2.3c2.4-.4 6-.7 10.8-1a185.4 185.4 0 0 0 21.7-2.4c0-1 .1-1.6.1-1.8a6.2 6.2 0 0 0-3.5-6c-3.1-1.6-7.7-2.4-13.9-2.4s-10 .6-12.7 1.7a11.4 11.4 0 0 0-6.1 6.1l-11.9-.9a15 15 0 0 1 5.3-7.1c2.5-1.8 6.1-3.2 10.8-4.2a81.6 81.6 0 0 1 16.3-1.5 73.6 73.6 0 0 1 15 1.2 24.6 24.6 0 0 1 8.5 3.1 10.1 10.1 0 0 1 3.8 4.7 23.4 23.4 0 0 1 .6 6.4v9.3c0 6.5.3 10.6.8 12.3a12.1 12.1 0 0 0 3.1 4.9h-12.7a10.4 10.4 0 0 1-2.4-5.1zm-1-15.6a146.7 146.7 0 0 1-19.9 2.6 75.3 75.3 0 0 0-10.6 1.4 11.1 11.1 0 0 0-4.9 2.4 4.4 4.4 0 0 0-1.7 3.3c0 1.9 1.2 3.4 3.7 4.7s6.1 1.9 10.8 1.9a40.9 40.9 0 0 0 12.5-1.8c3.6-1.2 6.4-2.8 8.1-4.8s2-3.9 2-7z" fill="#2c328b" stroke="#2c328b" stroke-miterlimit="22.926" stroke-width=".216"/></symbol><symbol id="icon-diners-6e1e8" viewBox="0 0 750 471"><path fill="#0079BE" d="M584.934 236.947c0-99.416-82.98-168.133-173.896-168.1h-78.24c-92.004-.033-167.73 68.705-167.73 168.1 0 90.93 75.728 165.64 167.73 165.203h78.24c90.913.437 173.896-74.293 173.896-165.203z"/><path fill="#FFF" d="M333.28 82.932c-84.068.026-152.192 68.308-152.214 152.58.02 84.258 68.145 152.532 152.215 152.56 84.09-.027 152.23-68.302 152.24-152.56-.012-84.274-68.15-152.554-152.24-152.58z"/><path fill="#0079BE" d="M237.066 235.098c.08-41.18 25.747-76.296 61.94-90.25v180.48c-36.193-13.947-61.86-49.045-61.94-90.23zm131 90.275V144.848c36.208 13.92 61.915 49.057 61.98 90.256-.065 41.212-25.772 76.322-61.98 90.27z"/></symbol><symbol id="icon-discover-cafe8" viewBox="0 0 780 501"><path fill="#F47216" d="M409.412 197.758c30.938 0 56.02 23.58 56.02 52.71v.032c0 29.13-25.082 52.742-56.02 52.742-30.94 0-56.022-23.613-56.022-52.742v-.033c0-29.13 25.08-52.71 56.022-52.71z"/><path d="M321.433 198.438c8.836 0 16.247 1.785 25.27 6.09v22.752c-8.545-7.863-15.956-11.154-25.758-11.154-19.265 0-34.413 15.015-34.413 34.05 0 20.075 14.68 34.196 35.368 34.196 9.313 0 16.586-3.12 24.802-10.856v22.764c-9.343 4.14-16.912 5.775-25.757 5.775-31.277 0-55.58-22.597-55.58-51.737-.002-28.828 24.95-51.88 56.068-51.88zm-97.113.626c11.546 0 22.11 3.72 30.942 10.994l-10.748 13.248c-5.35-5.646-10.41-8.027-16.563-8.027-8.853 0-15.3 4.744-15.3 10.987 0 5.354 3.618 8.188 15.944 12.482 23.364 8.042 30.29 15.175 30.29 30.925 0 19.193-14.977 32.554-36.32 32.554-15.63 0-26.993-5.796-36.457-18.872l13.268-12.03c4.73 8.608 12.622 13.222 22.42 13.222 9.163 0 15.947-5.95 15.947-13.984 0-4.164-2.056-7.733-6.158-10.258-2.066-1.195-6.158-2.977-14.2-5.646-19.29-6.538-25.91-13.527-25.91-27.186 0-16.226 14.214-28.412 32.846-28.412zm234.723 1.729h22.436l28.083 66.592 28.447-66.592h22.266L514.783 302.48H503.73m-345.9-101.535h20.54v99.143h-20.54m411.733-99.143h58.252v16.8H590.09v22.005h36.336v16.79H590.09v26.763h37.725v16.785h-58.252m115.593-41.766c15.47-2.965 23.984-12.926 23.984-28.105 0-18.562-13.576-29.27-37.266-29.27H641.42v99.142h20.516v-39.83h2.68l28.43 39.828h25.26l-33.15-41.766zm-17.218-11.736h-6.002V216.56h6.326c12.79 0 19.744 5.05 19.744 14.698.002 9.966-6.95 15.328-20.068 15.328zM91.845 200.945h-30.15v99.143H91.69c15.946 0 27.465-3.543 37.573-11.445 12.015-9.36 19.118-23.467 19.118-38.057 0-29.26-23.22-49.64-56.533-49.64zm23.997 74.48c-6.454 5.483-14.837 7.878-28.108 7.878H82.22v-65.56h5.513c13.27 0 21.323 2.24 28.108 8.02 7.105 5.955 11.378 15.182 11.378 24.68 0 9.514-4.273 19.025-11.376 24.98z"/></symbol><symbol id="icon-elo-6254a" viewBox="0 0 750 471"><path d="M375.2 69.7a166.5 166.5 0 1 1-166.5 166.5A166.5 166.5 0 0 1 375.2 69.7z" fill-rule="evenodd"/><path d="M267.2 243.1a30.8 30.8 0 0 1-.2-3.5 30.4 30.4 0 0 1 53.4-19.8L267.2 243zm51.6 18a30.4 30.4 0 0 1-37.8 4.1L269.6 283a51.4 51.4 0 0 0 63.5-6.6L318.7 261zm28.6-33a51.4 51.4 0 1 0-93.3 39.6l93.3-39.6z" fill="#fff" stroke="#fff" stroke-miterlimit="22.926" stroke-width=".216" fill-rule="evenodd"/><path d="M468.5 262.1a30.4 30.4 0 0 1-47.9-35.4l-19-9.2a51.4 51.4 0 0 0 81.1 60.2l-14.2-15.5z" fill="#a82a30" stroke="#a82a30" stroke-miterlimit="22.926" stroke-width=".216" fill-rule="evenodd"/><path d="M393.5 271.6l-7.8 19.4-16.3-6.7a20.7 20.7 0 0 1-12.5-19.6V165h19.7v99.2l16.9 7.4z" fill="#fff" stroke="#fff" stroke-miterlimit="22.926" stroke-width=".216" fill-rule="evenodd"/><path d="M427.5 217.3a30.4 30.4 0 0 1 47.9 35.4l19 9.2a51.1 51.1 0 0 0 4.7-16.5V234a51.4 51.4 0 0 0-85.8-32.3l14.2 15.5zm-80.2 10.8a51.4 51.4 0 0 0-100.4 1.2 50.2 50.2 0 0 0-.8 15.6 51.1 51.1 0 0 0 8 22.8l93.3-39.6zm-50-18.8a30.3 30.3 0 0 1 23 10.6l-53.2 23.2a30.7 30.7 0 0 1-.2-3.5 30.4 30.4 0 0 1 30.4-30.4z" fill="#fff200" stroke="#fff200" stroke-miterlimit="22.926" stroke-width=".216" fill-rule="evenodd"/></symbol><symbol id="icon-hipercard-1d93e" viewBox="0 0 780 501"><path d="M725 0H55A55.1 55.1 0 0 0 0 55v391a55.1 55.1 0 0 0 55 55h670a55.1 55.1 0 0 0 55-55V55a55.1 55.1 0 0 0-55-55z" fill="none"/><path d="M230.1 199.4h2.1l1.7-.6 1.7-.6 1.5-1.5 1.5-1.5.8-2 .8-2v-5.9l-.7-1.2-.7-1.1-1.2-.7-1.2-.7h-5.2l-1.8.8-1.8.8-1 1.1-1 1.1-.8 1.9-.8 1.9-.2 3-.2 3 .8 1.5.8 1.5 1.5.7 1.5.7h2.1zM565.7 284h7.6v-4.6l.9-5.7c.5-3.2 1.3-8.2 1.8-11.1l1.3-8.3c.3-1.6.9-5.1 1.5-7.8s1.3-5.6 1.6-6.4a11 11 0 0 0 .6-2 23.7 23.7 0 0 1 1.4-3.5l1.4-3 1.9-2.5 1.9-2.5 2.1-1.6a29.7 29.7 0 0 1 4.1-2.5l2-1h8.7l1.7.5 1.7.5.3-.2.3-.2V221a44.5 44.5 0 0 1 .8-5l.8-3.9-.9-.4-2.6-.9-1.7-.5h-6.2l-2.5.9-2.5.9-1.9 1.2-1.9 1.2-2.5 2.6-2.5 2.6-1.3 2a9.6 9.6 0 0 1-1.4 1.9c-.1-.1.3-2.4.9-5.1s1-5.4 1-5.8v-.8h-13.3v.2c0 .1-.3 2.3-.7 4.9s-1.2 7.6-1.7 11.1l-2.1 12.7c-.6 3.4-1.4 8.4-1.9 10.9l-1.9 10.1-2.1 10.6-1.7 8.4-.6 3.2h7.6zm-175.8 0h7.4l.2-3.1c.1-1.7.5-5.2.9-7.7l1.8-11.2c.6-3.6 1.7-9.7 2.4-13.4s1.6-7.5 1.9-8.3a9.4 9.4 0 0 0 .5-1.9 18.5 18.5 0 0 1 1.2-3.2 42.8 42.8 0 0 1 2.8-5l1.6-2.3 2.1-2 2.1-2 2.6-1.2 2.6-1.2h8l2 .6 2.2.6c.1 0 .2-.4.2-.8s.4-2.7.9-5.1.9-4.4.9-4.5a9.2 9.2 0 0 0-2.5-1 32.2 32.2 0 0 0-4.2-1l-1.7-.2-2.3.4a28.8 28.8 0 0 0-4.1 1.1 23.3 23.3 0 0 0-3.7 1.9 26.9 26.9 0 0 0-3.6 2.9 40.6 40.6 0 0 0-3.5 4.1l-2.3 3.1-.5.7.3-1.4c.2-.8.6-3.3 1-5.6s.8-4.4.9-4.8l.2-.6H395v.8c0 .5-.4 3.2-.9 6.2l-1.7 10.9-1.9 11.8c-.6 3.4-1.4 8.4-1.9 10.9l-1.9 10.1-2.1 10.8-1.6 7.8c-.3 1.3-.5 2.5-.5 2.7v.3h7.4zm-174.5 0h7.5l.2-.5a6.5 6.5 0 0 0 .2-1.8c0-.7.5-4.1 1-7.7l2.1-12.9 1.9-11.4c.5-2.8 1.3-7.4 1.9-10.2l1.9-9.9 2.1-10.9c.7-3.4 1.3-6.3 1.4-6.5l.2-.3h-15l-.6 4.5c-.3 2.5-1.1 7.4-1.7 10.9l-1.9 12c-.5 3.1-1.3 8-1.9 10.9l-1.9 10.1-1.9 10.1-1.7 8.7c-.4 1.8-.8 3.6-.9 4.1l-.2.8h7.5zm-93.3 0h8.4l.6-3.7 1.4-8.8 1.9-11.4 2-11.6 1.7-9.9a42.9 42.9 0 0 1 1-4.9l.2-.2h45.3l.3.3.3.3-.4 2-1.4 7.6-2.1 11.4-1.9 10.2-2.1 11.1c-.7 3.7-1.2 7-1.2 7.2v.4H193l.4-2.2c.2-1.2.5-3.3.7-4.8s.7-4.5 1.1-6.8l1.7-10.1 2.1-12.3 1.9-11.4c.5-2.8 1.3-7.4 1.9-10.4l2.1-11.1 1.9-10.6 2-10.7c.6-3.2 1.3-7 1.7-8.4l.6-2.5h-17.2l-.2 1.6c-.1.9-.5 3.4-.9 5.6l-1.5 8.7c-.5 2.6-1.3 7.5-1.9 10.9s-1.3 8-1.6 10.1l-.6 3.9-12.6.3-12.6.3-10.5-.2-10.6-.3a29.3 29.3 0 0 1 .4-3c.3-1.6.8-4.4 1.2-6.2l1.6-8c.5-2.6 1-5.8 1.2-7.1s.6-3.6.9-4.9.8-4.3 1.2-6.5.8-4.2.9-4.5l.2-.6h-17l-.5 3c-.3 1.7-.7 4-.9 5.3l-1.4 8.8-1.9 12-1.9 12c-.6 3.6-1.5 9.2-2.1 12.5l-1.9 10.2-1.9 10.1c-.6 3.1-1.5 7.6-1.9 9.9s-1 4.9-1.2 5.9-.7 3.7-1.2 6.1-.9 4.6-.9 4.9v.6h8.4zm504.5 1.7h3.3l3.1-.5 4.9-1a25.6 25.6 0 0 0 3.8-1.6l2.1-1.1 1.8-1.6 1.8-1.6 1.9-2.5a29.1 29.1 0 0 0 2.1-3l.2-.5-.2 1.7c-.1 1-.3 2.5-.5 3.5s-.4 2.8-.5 4.1l-.2 2.3h13.6v-4.7l1-8.8c.6-4.9 1.4-11.3 1.9-14.4s1.2-7.4 1.6-9.7l1.6-9.2 1.9-10.7 2-11.1 1.9-10.2 2-10.4c.6-3.1 1.4-7.3 1.9-9.5s.8-4.1.8-4.2v-.3h-14.9l-.2 2.2c-.1 1.2-.7 5.1-1.3 8.8l-2 12.8-1.2 7.4-.2 1.2-.6-.2-3.9-1.1-3.3-.8-4.5-.4-4.5-.4-3.8.4-3.8.4-3.5.9-3.5.9-3.3 1.6-3.3 1.6-2.4 1.8-2.4 1.8-2.1 2.3a50.6 50.6 0 0 0-3.7 4.5l-1.6 2.3-1.9 3.9c-1 2.2-2.3 5-2.8 6.4s-1.4 4.3-2 6.6l-1.1 4.1-.5 5.4-.5 5.4.4 4.3.4 4.3.5 1.6c.3.9.8 2.4 1.2 3.4l.7 1.8 1.3 1.8 1.3 1.8 1.5 1.2 1.5 1.3 2.1 1a28.6 28.6 0 0 0 4.3 1.6l4.3.9 5.4.3zm5.9-9.8h-2.6l-1.8-.3a19.3 19.3 0 0 1-3.5-1l-1.6-.6-1.4-1.2-1.4-1.2-2.1-4-.5-2.3-.5-2.3v-9l.6-4 .6-4 .9-2.8a27.9 27.9 0 0 0 .9-3.2 16.6 16.6 0 0 1 1-2.8l2.1-4.4a36.1 36.1 0 0 1 2.5-4 34.3 34.3 0 0 1 3-3.5 23.1 23.1 0 0 1 3.2-2.5l1.5-1 2.7-.9 2.7-.9h11.4l3.3.9 4.3 1.3 1 .4-.2 1-.9 5.1-1.7 9.7-1.9 10.2c-.5 2.6-1.2 5.9-1.6 7.3l-1.2 4.4a29 29 0 0 1-1.5 3.8 30.2 30.2 0 0 1-2 3.6 19.9 19.9 0 0 1-2.2 2.6 29.7 29.7 0 0 1-3.1 2.4l-1.9 1.3-5.5 1.8zm-123.1 9.7h4.7l2.9-.8 2.9-.8 1.9-.9a36 36 0 0 0 3.8-2.2 29.3 29.3 0 0 0 3.6-3 40 40 0 0 0 3.1-3.5 9 9 0 0 1 1.5-1.7 29.2 29.2 0 0 1-.4 3.6 52.7 52.7 0 0 0-.5 5.6v2.2h12.7l.2-4.9.2-4.9.9-6.4c.5-3.5 1.3-8.8 1.8-11.6l1.9-10.7 1.9-10.6.9-5v-8.7l-1-2-1-2-1.3-1.3-1.3-1.3-2.2-1.1-2.2-1.1-6.5-1.4-4.5-.3-4.5-.3-5.8.4-9.9.9-4.2.5h-5.7l-.4 2c-.2 1.1-.9 3.7-1.4 5.8a30.2 30.2 0 0 0-.9 3.9l3.4-.8c1.8-.5 5.6-1.3 8.5-1.8l5.2-.9 4.7-.2 4.7-.2 6 1.1 2 1 2 1 1.1 1.7 1.1 1.7v5.3l-.6 2.9-.6 2.9h-25l-4.1 1.1a47.1 47.1 0 0 0-5.5 1.8l-1.8.7-3 1.6-2.6 1.6-2.1 2.1a32.2 32.2 0 0 0-3.3 3.8 32.7 32.7 0 0 0-2.3 4.4l-1.2 2.7-.5 3-.5 3v6.4l.5 2.6.5 2.6.9 1.7a21.8 21.8 0 0 0 2.1 3.1l1.2 1.4 2.1 1.3 2.1 1.3 2.4.7 4.4 1 2 .3h4.7zm4.3-9.7H511l-1.8-.5a19.5 19.5 0 0 1-3.4-1.3l-1.6-.8-.9-1a16.4 16.4 0 0 1-1.6-2.4l-.7-1.4V262l.6-2a33.4 33.4 0 0 1 1.7-4.3l1.1-2.3 2.1-2.1 2.1-2.1 2.2-1.1 2.2-1.1 2.8-.7 2.8-.7h17.3l.5.2.5.2-.5 2.7c-.3 1.5-.9 4.2-1.3 6s-1.3 4.5-1.9 5.9-1 2.7-1 2.8a18.5 18.5 0 0 1-1.3 2.3l-1.3 2.1-2.1 2.1a14 14 0 0 1-2.4 2.1l-1.6.9-1.3.9-2.8.9-2.8.9zm-61.4 9.8h3.8l4.3-.5 7-1 5.4-1.3 2.9-1a16.8 16.8 0 0 0 .9-3.5c.4-1.8.8-4.2 1-5.3a9.4 9.4 0 0 0 .2-2.2c-.1-.1-.3 0-.6.2l-3.8 1.6-3.3 1.2-4.8.9-4.8.9h-8.1l-2.3-.8-2.3-.8-1.8-1.5-1.8-1.6-1.2-2.1-1.2-2.1-.6-2.9-.6-2.9v-7.4l.7-4.5.7-4.5.7-2.4 1-3.5a37.4 37.4 0 0 1 1.4-3.6c.6-1.4 1.7-3.6 2.5-4.9l1.3-2.3 1.6-1.7 1.6-1.7 1.7-1.1 1.7-1.1 2.2-.7a41.6 41.6 0 0 1 4.8-1.1l2.6-.4 3.8.2 3.8.2 4.5.9 4.5.9 1.8.7 1.9.7a22.3 22.3 0 0 0 .5-2.9c.2-1.6.7-4.2 1-5.8a14.3 14.3 0 0 0 .4-3l-3-.5-9.5-.7-6.6-.4-4.7.4-4.7.4-3.5.7-3.5.7-2.2.9a32.3 32.3 0 0 0-4 2l-2.7 1.8a47.8 47.8 0 0 0-3.6 3.3l-2.7 2.6-1.5 2.2a55.6 55.6 0 0 0-3.1 5.5l-1.7 3.4-1.3 3.6c-.7 2-1.7 5.3-2.2 7.3l-.9 3.6-.3 3.3-.3 3.3v8.7l.3 2.5.3 2.5 1 2.6 1 2.6 1.2 1.9 1.2 1.9 1.9 1.9 1.9 1.9 2 1.1 2 1.1 2.6.7 4.7 1 5.9.3zm-110.3 0h3.8l3.8-.3 7.6-.9 8.1-1.5 4.2-.9.2-1.6c.1-.9.6-3.4 1.1-5.7l.8-4.1-.2-.2-.2-.2-1.3.6-4.9 1.8-3.6 1.2-3.8.7-3.8.7h-12.1l-2.1-.7-3.7-1.5-1.7-.8-2.7-2.5-1.1-1.9-1.1-1.9-.7-2.3-.7-2.3V253l.6-3.9.6-3.9 10.4-.5h38.6l.6-2.5c.3-1.4.8-4.2 1.1-6.2l.5-3.8v-6.3l-.5-2.4-.5-2.4-.9-1.6a21.9 21.9 0 0 0-2-2.8 15.5 15.5 0 0 0-2.3-2.1l-3-1.8-1.7-.9-3-.7-3-.7-3.7-.4-3.7-.4-3.5.2-3.5.2-4.2.8-4.2.8-2.6 1a47.7 47.7 0 0 0-4.9 2.3 34.1 34.1 0 0 0-3.8 2.5l-3.3 3a31.3 31.3 0 0 0-3.1 3.8 50.6 50.6 0 0 0-2.6 4.5c-.7 1.3-1.6 3.2-2 4.2s-1.1 2.9-1.6 4.3-1.3 4.2-1.7 6.1-1.1 5-1.4 7l-.6 3.5v10.3l.5 2.3a42.7 42.7 0 0 0 1.2 4.2 28.6 28.6 0 0 0 1.6 3.5 19.3 19.3 0 0 0 2.3 3.1 29.4 29.4 0 0 0 3.2 2.8 24.9 24.9 0 0 0 3.8 2.2l2 .9 2.8.7 5.2 1 6.2.4zm6.5-48.9l-17.5-.2.9-2.7c.5-1.4 1.4-3.5 2-4.6l1-2.1 2.3-2.3 2.3-2.3 2.3-1.1a26 26 0 0 1 3.6-1.4 37 37 0 0 1 4.9-.6l3.5-.2 2.7.3 2.7.3 1.9.9 1.9.9 1.1 1.1a12.4 12.4 0 0 1 1.5 2.1l.5.9.3 2 .3 2-.4 3.4-.4 3.4zm-103.1 79.5l.2-.5a5.6 5.6 0 0 0 .2-1.6c0-.6.2-2.6.5-4.6l1.6-10 1.9-11.8c.5-3 1-6.7 1.3-8.4a12.3 12.3 0 0 1 .6-3 5.9 5.9 0 0 1 1.1 1.6l.9 1.6 1.9 1.9 1.9 1.9 2.4.9 2.4.9 2.8.4 2.8.4 3.6-.2 3.6-.2 3.9-1 3.9-1 2.1-1a42.3 42.3 0 0 0 4.5-2.5l2.4-1.6 2.3-2.3a51 51 0 0 0 3.8-4.2 19.6 19.6 0 0 0 1.6-2.4 9.9 9.9 0 0 1 1-1.6 39 39 0 0 0 2.5-4.9c.8-1.9 2.1-5.3 2.8-7.6l1.3-4.2.7-3.6c.4-2 .9-5.3 1.1-7.3l.4-3.7-.2-3.1-.2-3.1-.7-3.1-.7-3.1-1.2-2.3-1.2-2.3-2.3-2.4-2.3-2.4-5.4-2.8-2.9-.7-2.9-.7-2.9-.2-2.9-.2-3.3.4-3.3.4-2.7.7-2.7.7-2.3 1.1a41.7 41.7 0 0 0-4.1 2.2l-2.3 1.6-1.4 1.1-.9.6.6-3c.4-1.7.6-3.2.6-3.5v-.4h-12.7l-1.1 7-2.2 13.3-1.9 11.4-1.9 11c-.6 3.3-1.5 8.6-2.1 11.8l-1.9 10.2-1.9 10.4-2.1 11.5-2.1 10.8-1.2 6-.2.8zm21.7-39.9l-1.9-.3-1.9-.3-1.9-.9-1.9-.9-1.3-1.3-1.3-1.3-.8-1.7a24.4 24.4 0 0 1-1.2-3.6l-.4-1.9.2-3 .2-3 .9-4.7c.5-2.6 1.4-7.4 2-10.7s1.5-8.2 2-10.9l.9-4.8 2-1.7a32.2 32.2 0 0 1 3.9-2.7l1.9-1.1 2.4-.7 2.4-.8 6.2-.4 2.5.5 2.5.5 1.8.8 1.8.8 1.5 1.5 1.5 1.5.8 1.6a23.3 23.3 0 0 1 1.4 3.8l.6 2.2-.2 6.6-.2 6.6-.9 3.9c-.5 2.1-1.4 5.4-2.1 7.3l-1.2 3.4-1.5 2.7a47.9 47.9 0 0 1-2.7 4.5 19.4 19.4 0 0 1-2.5 2.8l-2.5 2-1.3 1-5.9 2z" fill="#b3131b"/></symbol><symbol id="icon-jcb-78121" viewBox="0 0 750 471"><path d="M617.2 346.8a75.4 75.4 0 0 1-75.4 75.4h-409v-298a75.4 75.4 0 0 1 75.4-75.4h409v298z" fill="#fff"/><path d="M483.9 242c11.7.3 23.4-.5 35.1.4s14.6 20 4.2 25.9c-7.1 3.9-15.6 1.4-23.4 2.1h-15.9V242zm41.8-32.1c2.6 9.2-6.2 17.4-15.1 16.1h-26.7c.2-8.6-.4-18 .3-26.2 10.7.3 21.5-.6 32.2.5a12.8 12.8 0 0 1 9.3 9.6zM590.1 74c.5 17.5.1 35.9.2 53.8 0 72.6.1 145.2-.1 217.8-.5 27.2-24.6 50.8-51.6 51.4h-81.1V287.3c29.5-.2 59 .3 88.4-.2 13.7-.9 28.6-9.9 29.3-24.9S562.6 236.6 549 235c-5.2-.1-5-1.5 0-2.1 12.9-2.8 23-16.1 19.2-29.5s-18.8-19.5-31.7-19.5c-26.4-.2-52.7 0-79.1-.1.2-20.5-.4-41 .3-61.5 2.1-26.7 26.8-48.7 53.4-48.3z" fill="#54b230"/><path d="M159.7 125c.7-27.2 24.9-50.6 51.9-51h80.8c-.1 90.9.1 181.8-.1 272.7-1 26.8-25 49.8-51.7 50.3h-81V283.5c26.2 6.2 53.7 8.8 80.5 4.7 16-2.6 33.5-10.4 38.9-27 4-14.2 1.7-29.1 2.3-43.7v-33.8h-46.2c-.2 22.4.4 44.8-.3 67.1-1.2 13.7-14.9 22.5-27.8 22-16.1.2-47.9-11.6-47.9-11.6-.1-41.9.5-94.4.7-136.2z" fill="#006cb9"/><path d="M309.7 197.4c-2.4.5-.5-8.3-1.1-11.6.2-21.1-.3-42.3.3-63.5 2.1-26.8 27-48.9 53.7-48.3h78.8c-.1 90.9.1 181.8-.1 272.7-1 26.8-25 49.8-51.7 50.3h-81V272.7c18.4 15.1 43.5 17.5 66.5 17.5 17.3 0 34.5-2.7 51.4-6.7v-22.7c-19 9.4-41.2 15.4-62.2 10-14.7-3.6-25.3-17.8-25.1-32.9-1.7-15.7 7.5-32.3 23-37 19.2-6 40.1-1.4 58.1 6.4 3.9 2 7.8 4.5 6.2-1.9v-18c-30.1-7.2-62.1-9.8-92.3-2-8.7 2.5-17.3 6.2-24.4 12z" fill="#e10238"/></symbol><symbol id="icon-maestro-c1a7a" viewBox="0 0 750 471"><path fill="none" d="M75-11.08h600v493.16H75z"/><path d="M280.86 419.12v-24.49c0-9.23-5.88-15.43-15.35-15.51-5-.08-10.12 1.47-13.72 6.94-2.69-4.33-6.94-6.94-12.9-6.94a12.91 12.91 0 0 0-11.43 5.8v-4.82H219v39h8.57v-21.61c0-6.78 3.76-10.37 9.55-10.37 5.63 0 8.49 3.67 8.49 10.29v21.72h8.57v-21.64c0-6.78 3.92-10.37 9.55-10.37 5.8 0 8.57 3.67 8.57 10.29v21.72zm47.84-19.51V380.1h-8.49v4.73c-2.69-3.51-6.78-5.71-12.33-5.71-10.94 0-19.51 8.57-19.51 20.49s8.57 20.49 19.51 20.49c5.55 0 9.63-2.2 12.33-5.72v4.73h8.49zm-31.59 0c0-6.86 4.49-12.49 11.84-12.49 7 0 11.76 5.39 11.76 12.49S316 412.1 308.95 412.1c-7.35 0-11.84-5.63-11.84-12.49zm213.27-20.54a22 22 0 0 1 8.37 1.57 20.43 20.43 0 0 1 6.66 4.32 19.77 19.77 0 0 1 4.4 6.5 21.68 21.68 0 0 1 0 16.3 19.76 19.76 0 0 1-4.4 6.5 20.42 20.42 0 0 1-6.66 4.32 23.12 23.12 0 0 1-16.75 0 20.19 20.19 0 0 1-6.64-4.32 20 20 0 0 1-4.38-6.5 21.7 21.7 0 0 1 0-16.3 20 20 0 0 1 4.38-6.5 20.21 20.21 0 0 1 6.64-4.32 22 22 0 0 1 8.38-1.57zm0 8a12.67 12.67 0 0 0-4.85.92 11.47 11.47 0 0 0-3.87 2.57 12 12 0 0 0-2.57 4 14.2 14.2 0 0 0 0 10.15 12 12 0 0 0 2.57 4 11.47 11.47 0 0 0 3.87 2.57 13.28 13.28 0 0 0 9.7 0 11.7 11.7 0 0 0 3.89-2.57 11.84 11.84 0 0 0 2.59-4 14.2 14.2 0 0 0 0-10.15 11.85 11.85 0 0 0-2.59-4 11.7 11.7 0 0 0-3.89-2.57 12.67 12.67 0 0 0-4.85-.89zM374.9 399.61c-.08-12.16-7.59-20.49-18.53-20.49-11.43 0-19.43 8.33-19.43 20.49 0 12.41 8.33 20.49 20 20.49 5.88 0 11.27-1.47 16-5.47l-4.16-6.29a18.59 18.59 0 0 1-11.35 4.08c-5.47 0-10.45-2.53-11.67-9.55h29c.06-1.06.14-2.12.14-3.26zm-29.06-3.43c.9-5.63 4.33-9.47 10.37-9.47 5.47 0 9 3.43 9.88 9.47zm64.82-6.12a25.15 25.15 0 0 0-12.16-3.35c-4.65 0-7.43 1.71-7.43 4.57 0 2.61 2.94 3.35 6.61 3.84l4 .57c8.49 1.22 13.63 4.82 13.63 11.67 0 7.43-6.53 12.74-17.8 12.74a28.15 28.15 0 0 1-16.9-5.06l4-6.61a20.79 20.79 0 0 0 13 4.08c5.8 0 8.9-1.71 8.9-4.74 0-2.2-2.2-3.43-6.86-4.08l-4-.57c-8.73-1.23-13.47-5.14-13.47-11.51 0-7.76 6.37-12.49 16.25-12.49 6.2 0 11.84 1.39 15.92 4.08zm40.8-2.2h-13.88v17.63c0 3.92 1.39 6.53 5.63 6.53a15.68 15.68 0 0 0 7.51-2.2l2.45 7.27a20 20 0 0 1-10.61 3c-10 0-13.55-5.39-13.55-14.45v-17.8h-7.92v-7.74H429v-11.84h8.57v11.84h13.88zm29.38-8.74a18.13 18.13 0 0 1 6 1.06l-2.61 8a13.83 13.83 0 0 0-5.31-1c-5.55 0-8.33 3.59-8.33 10v21.88h-8.49v-39h8.41v4.73a11.51 11.51 0 0 1 10.29-5.71zm58.78 34.32a3.9 3.9 0 0 1 1.54.3 4 4 0 0 1 1.26.83 3.91 3.91 0 0 1 .85 1.24 3.82 3.82 0 0 1 0 3 3.94 3.94 0 0 1-.85 1.23 4.07 4.07 0 0 1-1.26.84 3.84 3.84 0 0 1-1.54.31 4 4 0 0 1-3.67-2.38 3.83 3.83 0 0 1 0-3 3.93 3.93 0 0 1 .84-1.24 3.89 3.89 0 0 1 1.26-.83 4 4 0 0 1 1.57-.3zm0 6.91a2.89 2.89 0 0 0 1.17-.24 3.08 3.08 0 0 0 1-.65 3 3 0 0 0-1-4.93 2.92 2.92 0 0 0-1.17-.23 3 3 0 0 0-1.19.23 3 3 0 0 0-1 .64 3 3 0 0 0 0 4.28 3 3 0 0 0 2.16.89zm.23-4.85a1.64 1.64 0 0 1 1.07.31 1 1 0 0 1 .38.84 1 1 0 0 1-.3.74 1.43 1.43 0 0 1-.85.36l1.18 1.36h-.92l-1.09-1.35H539v1.35h-.77v-3.61zm-.89.68v1h.89a.87.87 0 0 0 .49-.12.41.41 0 0 0 .18-.37.4.4 0 0 0-.18-.36.88.88 0 0 0-.49-.12z"/><path fill="#7673c0" d="M310.62 82.26h128.77v231.4H310.62z"/><path d="M318.79 198A146.91 146.91 0 0 1 375 82.26a147.16 147.16 0 1 0 0 231.4A146.91 146.91 0 0 1 318.79 198z" fill="#eb001b"/><path d="M599.06 289.15v-4.74H601v-1h-4.9v1h1.9v4.74zm9.45 0v-5.71H607l-1.72 3.93-1.72-3.93h-1.49v5.71h1.05v-4.31l1.61 3.71h1.09l1.61-3.72v4.32zM613.1 198A147.16 147.16 0 0 1 375 313.66a147.18 147.18 0 0 0 0-231.4A147.16 147.16 0 0 1 613.1 198z" fill="#00a1df"/></symbol><symbol id="icon-mastercard-e71d5" viewBox="0 0 750 471"><path fill="none" d="M75-10.57h600v492.15H75z"/><path d="M223.55 419.63v-24.52c0-9.24-5.88-15.45-15.37-15.53-5-.08-10.13 1.47-13.73 6.95-2.7-4.33-6.95-6.95-12.91-6.95a12.92 12.92 0 0 0-11.44 5.8v-4.82h-8.5v39.07h8.58V398c0-6.78 3.76-10.38 9.56-10.38 5.64 0 8.5 3.68 8.5 10.3v21.74h8.58V398c0-6.78 3.92-10.38 9.56-10.38 5.8 0 8.58 3.68 8.58 10.3v21.74zm127-39.07h-13.89v-11.85h-8.58v11.85h-7.93v7.76h7.93v17.82c0 9.07 3.51 14.47 13.57 14.47a20 20 0 0 0 10.62-3l-2.45-7.27a15.69 15.69 0 0 1-7.52 2.21c-4.25 0-5.64-2.62-5.64-6.54v-17.68h13.89zm72.5-1a11.52 11.52 0 0 0-10.3 5.72v-4.74h-8.42v39.07h8.5v-21.9c0-6.46 2.78-10.05 8.34-10.05a13.85 13.85 0 0 1 5.31 1l2.62-8a18.17 18.17 0 0 0-6-1.06zm-109.6 4.09c-4.09-2.7-9.73-4.09-15.94-4.09-9.89 0-16.26 4.74-16.26 12.5 0 6.38 4.74 10.3 13.49 11.52l4 .57c4.66.65 6.87 1.88 6.87 4.09 0 3-3.11 4.74-8.91 4.74a20.81 20.81 0 0 1-13-4.09l-4 6.62a28.19 28.19 0 0 0 16.92 5.07c11.28 0 17.82-5.31 17.82-12.75 0-6.87-5.15-10.46-13.65-11.69l-4-.57c-3.68-.49-6.62-1.22-6.62-3.84 0-2.86 2.78-4.58 7.44-4.58a25.19 25.19 0 0 1 12.18 3.35zm227.7-4.09a11.52 11.52 0 0 0-10.3 5.72v-4.74h-8.42v39.07h8.5v-21.9c0-6.46 2.78-10.05 8.34-10.05a13.85 13.85 0 0 1 5.31 1l2.62-8a18.17 18.17 0 0 0-6-1.06zM431.64 400.1c0 11.85 8.26 20.52 20.84 20.52 5.88 0 9.81-1.31 14.06-4.66l-4.09-6.87a17.17 17.17 0 0 1-10.22 3.51c-6.78-.08-11.77-5-11.77-12.51s5-12.42 11.77-12.5a17.17 17.17 0 0 1 10.22 3.51l4.09-6.87c-4.25-3.35-8.17-4.66-14.06-4.66-12.59 0-20.84 8.66-20.84 20.51zm79.61 0v-19.54h-8.5v4.74c-2.7-3.51-6.78-5.72-12.34-5.72-11 0-19.53 8.58-19.53 20.51s8.58 20.52 19.53 20.52c5.56 0 9.64-2.21 12.34-5.72v4.74h8.5zm-31.63 0c0-6.87 4.5-12.5 11.85-12.5 7 0 11.77 5.39 11.77 12.5s-4.74 12.51-11.77 12.51c-7.36 0-11.85-5.64-11.85-12.51zM377 379.58c-11.44 0-19.45 8.34-19.45 20.51 0 12.42 8.34 20.52 20 20.52 5.88 0 11.28-1.47 16-5.48l-4.17-6.29a18.61 18.61 0 0 1-11.36 4.09c-5.48 0-10.46-2.53-11.69-9.56h29c.08-1.06.16-2.12.16-3.27-.08-12.18-7.6-20.51-18.55-20.51zm-.16 7.6c5.48 0 9 3.43 9.89 9.48H366.5c.9-5.64 4.33-9.48 10.38-9.48zm213.27 12.92v-35.23h-8.5v20.43c-2.7-3.51-6.78-5.72-12.34-5.72-11 0-19.53 8.58-19.53 20.51s8.58 20.52 19.53 20.52c5.56 0 9.64-2.21 12.34-5.72v4.74h8.5zm-31.63 0c0-6.87 4.5-12.5 11.85-12.5 7 0 11.77 5.39 11.77 12.5s-4.74 12.51-11.77 12.51c-7.36 0-11.85-5.64-11.85-12.51zm-287 0v-19.54h-8.5v4.74c-2.7-3.51-6.78-5.72-12.34-5.72-11 0-19.53 8.58-19.53 20.51s8.58 20.52 19.53 20.52c5.56 0 9.64-2.21 12.34-5.72v4.74h8.5zm-31.63 0c0-6.87 4.5-12.5 11.85-12.5 7 0 11.77 5.39 11.77 12.5s-4.74 12.51-11.77 12.51c-7.39-.01-11.89-5.61-11.89-12.51zM604.28 414a3.9 3.9 0 0 1 1.54.3 4 4 0 0 1 1.26.83 3.91 3.91 0 0 1 .85 1.24 3.82 3.82 0 0 1 0 3 3.94 3.94 0 0 1-.85 1.23 4.08 4.08 0 0 1-1.26.84 3.84 3.84 0 0 1-1.54.31 4 4 0 0 1-3.67-2.38 3.83 3.83 0 0 1 0-3 3.94 3.94 0 0 1 .84-1.24 3.88 3.88 0 0 1 1.26-.83 4 4 0 0 1 1.57-.3zm0 6.91a2.89 2.89 0 0 0 1.17-.24 3.08 3.08 0 0 0 1-.65 3 3 0 0 0 0-4.28 3 3 0 0 0-1-.64 2.93 2.93 0 0 0-1.17-.23 3.05 3.05 0 0 0-1.19.23 3 3 0 0 0-1 .64 3 3 0 0 0 0 4.28 3 3 0 0 0 1 .65 3 3 0 0 0 1.19.21zm.23-4.84a1.64 1.64 0 0 1 1.07.31 1 1 0 0 1 .38.84 1 1 0 0 1-.3.74 1.43 1.43 0 0 1-.85.36l1.18 1.36h-.92l-1.07-1.39h-.35v1.35h-.77V416zm-.89.68v1h.89a.87.87 0 0 0 .49-.12.41.41 0 0 0 .18-.37.4.4 0 0 0-.18-.36.88.88 0 0 0-.49-.12z"/><path fill="#ff5f00" d="M310.63 82.83h128.74v231.36H310.63z"/><path d="M318.8 198.51A146.88 146.88 0 0 1 375 82.83a147.14 147.14 0 1 0 0 231.36 146.88 146.88 0 0 1-56.2-115.68z" fill="#eb001b"/><path d="M613.06 198.51A147.13 147.13 0 0 1 375 314.18a147.16 147.16 0 0 0 0-231.36 147.13 147.13 0 0 1 238.06 115.69zm-14 91.17v-4.74h1.91v-1h-4.86v1H598v4.74zm9.44 0V284H607l-1.71 3.93-1.75-3.93H602v5.71h1.05v-4.31l1.61 3.71h1.09l1.61-3.72v4.32z" fill="#f79e1b"/></symbol><symbol id="icon-unionpay-b8094" viewBox="0 0 750 471"><path d="M201.8 55h142.4c19.9 0 32.3 16.4 27.6 36.5l-66.3 287.4c-4.7 20.1-24.6 36.5-44.5 36.5H118.6c-19.9 0-32.3-16.4-27.6-36.5l66.3-287.4C162 71.3 181.8 55 201.7 55z" fill="#d10429"/><path d="M331.8 55h163.8c19.9 0 10.9 16.4 6.2 36.5l-66.4 287.4c-4.7 20.1-3.2 36.5-23.1 36.5H248.6c-20 0-32.3-16.4-27.5-36.5l66.3-287.4C292 71.3 311.9 55 331.9 55z" fill="#022e64"/><path d="M489.8 55h142.4c19.9 0 32.3 16.4 27.6 36.5l-66.3 287.4c-4.7 20.1-24.6 36.5-44.5 36.5H406.6c-20 0-32.3-16.4-27.6-36.5l66.3-287.4C450 71.3 469.8 55 489.7 55z" fill="#076f74"/><path d="M465.9 326h13.5l3.8-13.1h-13.4l-3.9 13.1zm10.8-35.9l-4.7 15.4a64.7 64.7 0 0 1 7.9-3.5c2.8-.6 6.9-1.1 6.9-1.1l3.2-10.8h-13.3zm6.7-22.2l-4.5 14.8a64.6 64.6 0 0 1 7.8-3 42.6 42.6 0 0 1 6.9-.9l3.2-10.8h-13.4zm29.7 0l-17.4 58h4.7l-3.6 12h-4.7l-1.1 3.7h-16.6l1.1-3.7H442l3.3-11.1h3.4l17.6-58.9 3.5-11.9h16.9l-1.8 6a31.6 31.6 0 0 1 8.8-4.4c4.2-1.1 28.7-1.6 28.7-1.6l-3.6 11.8h-5.7z" fill="#fefefe"/><path d="M520 256h18l.2 6.8c-.1 1.1.8 1.7 3 1.7h3.6l-3.3 11.2h-9.7c-8.4.6-11.6-3-11.4-7.1l-.3-12.4zm2.2 53.2H505l2.9-9.9h19.7l2.8-9.1H511l3.3-11.2h53.8l-3.3 11.2h-18.1l-2.8 9.1H562l-3 9.9h-19.5l-3.5 4.2h8l2 12.5c.2 1.3.2 2.1.6 2.6s2.8.6 4.1.6h2.4l-3.7 12.2h-10.5c-1.9-.2-3.1-1.3-4.3-1.9a5.8 5.8 0 0 1-3.2-4.3l-1.9-12.5-8.9 12.3c-2.8 3.9-6.6 6.9-13.1 6.9H495l3.3-10.9h4.8a7.3 7.3 0 0 0 3.5-1 5 5 0 0 0 2.6-2.2l13-18.5zM334.3 282h45.4l-3.3 11h-18.1l-2.8 9.3h18.6l-3.4 11.3h-18.5l-4.6 15.1c-.5 1.7 4.5 1.9 6.2 1.9l9.3-1.3-3.7 12.5h-20.8a19.9 19.9 0 0 1-4.8-.6 4.8 4.8 0 0 1-3.3-2.4c-.7-1.3-2-2.2-1.1-4.9l6-20.1H325l3.4-11.5h10.3l2.8-9.3h-10.3l3.3-11h-.2zm31.4-19.8h18.6l-3.4 11.4h-25.4l-2.8 2.4c-1.2 1.1-1.6.7-3.1 1.6a18.3 18.3 0 0 1-8.4 2.2H333l3.3-11h2.5a9.7 9.7 0 0 0 4.2-.6 8.8 8.8 0 0 0 2.7-3.6l4.7-8.6h18.5l-3.2 6.3zm35.1 18.8a28.6 28.6 0 0 1 13.8-6.2c2-.4 14.4-.2 14.4-.2l1.9-6.3h-26.3l-3.8 12.8zm24.6 4.8h-26l-1.6 5.3h22.6c2.7-.3 3.2.1 3.4-.1l1.7-5.2h-.1zm-33.7-29.7h15.8l-2.3 8s5-4.1 8.5-5.5a91.5 91.5 0 0 1 11.4-2.5h25.7l-8.8 29.4a36.8 36.8 0 0 1-4.2 9.8 11.1 11.1 0 0 1-4.3 4.1 15 15 0 0 1-6 2l-7.9.2h-24.8l-6.9 23.3c-.6 2.3-.9 3.4-.5 4.1a2.9 2.9 0 0 0 2.4 1.1l10.9-1-3.7 12.8h-12.3l-8.7-.2c-1.9-.2-3.8 0-5.2-1s-2.9-2.4-2.8-3.8a40 40 0 0 1 1.5-6.3l22.2-74.4z" fill="#fefefe"/><path d="M437.8 303l-1.5 7.1c-.6 2.2-1.1 3.9-2.8 5.3s-3.7 3-8.5 3l-8.8.4v7.9c-.1 2.2.5 2 .8 2.4a3.5 3.5 0 0 0 1.1.7l2.8-.2 8.4-.4-3.5 11.8h-9.6c-6.7 0-11.8-.2-13.4-1.5s-1.9-2.3-1.9-4.6l.6-31.1H417l-.2 6.4h3.7a5.7 5.7 0 0 0 2.7-.4 2.5 2.5 0 0 0 1-1.6l1.6-5h12.1v-.2zM218.5 147c-.5 2.5-10.4 48.6-10.4 48.6-2.2 9.3-3.7 16-8.9 20.3a15.9 15.9 0 0 1-10.6 3.7c-6.5 0-10.2-3.2-10.9-9.4V208s2-12.4 2-12.5 10.4-42 12.2-47.5a1.9 1.9 0 0 0 .1-.6c-20.2.2-23.8 0-24-.3l-.6 3-10.6 47.3-.9 4-1.9 13.1a18.7 18.7 0 0 0 2.3 9.7c4.9 8.6 18.6 9.8 26.4 9.8 10 0 19.5-2.2 25.8-6.1 11.1-6.6 14-16.9 16.5-26l1.2-4.7s10.7-43.6 12.5-49.2c.1-.3.1-.5.2-.6-14.7.1-18.9 0-20.4-.3zm59 86.6c-7.1-.1-9.7-.1-18.1.3l-.3-.6c.7-3.2 1.5-6.4 2.2-9.6l1-4.4c1.6-6.8 3-14.8 3.2-17.2s.6-5.1-3.5-5.1a13.9 13.9 0 0 0-5.4 1.7c-1 3.7-3 13.9-4 18.5-2.1 9.8-2.2 11-3.1 15.8l-.6.6c-7.3-.1-9.9-.1-18.4.3l-.4-.7c1.4-5.9 2.8-11.7 4.1-17.6 3.5-15.8 4.4-21.8 5.4-29.9l.7-.4c8.3-1.1 10.2-1.5 19.2-3.2l.7.8-1.3 5a51 51 0 0 1 4.6-2.6 27.9 27.9 0 0 1 11.5-2.7c3.9 0 8.3 1.1 10 5.7s.6 9.1-1.7 19l-1.1 5c-2.3 11.1-2.7 13.1-3.9 20.6l-.8.6h.1zm29.1 0c-4.3 0-7.1-.1-9.8 0l-9.3.3-.2-.3-.2-.4a51 51 0 0 1 2.3-7.1 61.7 61.7 0 0 0 2.1-7.2c1.2-5.5 2.1-9.4 2.6-12.9s.9-6.1 1.3-9.3l.3-.2.3-.3 9.8-1.5 10.1-1.8.2.4v.4l-2.5 10.3c-.8 3.4-1.7 6.9-2.4 10.3-1.6 7.3-2.3 10-2.6 12s-.5 2.8-1.1 6.6l-.4.3-.4.3h-.2zm45.9-25.6c-.3 1.9-2 8.9-4.1 11.8s-3.3 3.6-5.4 3.6-4.1 0-4.2-5.3a40.5 40.5 0 0 1 1.1-8.3c1.9-8.5 4.1-15.5 9.8-15.5s4.8 5.2 2.8 13.7zm18.7.8c2.5-11.1.5-16.3-1.9-19.4-3.7-4.8-10.3-6.4-17.2-6.4-4.1 0-13.9.4-21.5 7.5-5.5 5.1-8.1 12.1-9.5 18.8s-3.3 19 7.9 23.6c3.4 1.5 8.4 1.9 11.6 1.9 8.2 0 16.6-2.3 22.9-9s7-13.6 7.9-17h-.1zm174.4 26.1c-8.7-.1-11.2-.1-19.1.3l-.5-.6c2.2-8.3 4.3-16.6 6.3-25a192.3 192.3 0 0 0 3.9-21.8l.6-.5c8.6-1.3 11-1.6 20-3.2l.2.7c-1.7 6.9-3.2 13.7-4.9 20.5-3.3 14.3-4.4 21.6-5.7 29.2l-.8.6z" fill="#fefefe"/><path d="M533.2 209.4c-.4 1.8-2.1 8.9-4.2 11.8s-5 3.4-6.9 3.4-4 0-4.2-5.2a40.4 40.4 0 0 1 1.1-8.3c1.9-8.3 4.1-15.3 9.8-15.3s6.4 5.1 4.5 13.6zm17.1.8c2.5-11.1-7.7-.9-9.2-4.6-2.5-5.7-.9-17.2-10.9-21.1-3.8-1.6-12.8.4-20.5 7.5-5.4 5-8.1 12-9.5 18.7s-3.3 19 7.8 23.3a20.3 20.3 0 0 0 9.9 1.8c11.2-.6 19.7-17.7 26-24.3s5.7 2 6.4-1.3zm-130 23.4c-7.1-.1-9.6-.1-18 .3l-.3-.6c.7-3.2 1.6-6.4 2.3-9.6l.9-4.4c1.6-6.8 3.1-14.8 3.2-17.2s.6-5.1-3.4-5.1a13.4 13.4 0 0 0-5.4 1.7c-.9 3.7-3 13.9-4 18.5-2 9.8-2.2 11-3.1 15.8l-.6.6c-7.3-.1-9.9-.1-18.4.3l-.4-.7c1.5-5.9 2.8-11.7 4.1-17.6a274.9 274.9 0 0 0 5.4-29.9l.6-.4c8.3-1.1 10.4-1.5 19.3-3.2l.7.8-1.2 5a49.8 49.8 0 0 1 4.5-2.6 27.9 27.9 0 0 1 11.5-2.7c3.9 0 8.2 1.1 10 5.7s.5 9.1-1.8 19l-1.1 5c-2.4 11.1-2.7 13.1-3.9 20.6l-.8.6h.1zm62-86.5h-6c-15.5.2-21.7.1-24.2-.2-.2 1.1-.6 3.1-.6 3.1s-5.6 25.9-5.6 26L432 233.9c13.6-.2 19-.2 21.4.1.5-2.6 3.6-18 3.7-18l2.8-11.7a7.6 7.6 0 0 1 1.7-1.7h1.2c11.7 0 24.8 0 35.2-7.6 7-5.2 11.8-13.1 14-22.5a36.2 36.2 0 0 0 .9-7.8 16.7 16.7 0 0 0-2.8-10c-5.3-7.4-15.7-7.5-27.8-7.6zm7.8 27.1a18.8 18.8 0 0 1-9.7 13c-3.9 2-8.7 2.2-13.7 2.2h-3.2l.2-1.3s5.9-25.9 5.9-25.8l.2-1.4v-1l2.4.2 12.4 1c4.8 1.9 6.8 6.7 5.4 13.1zm127.2 8.7l-.7-.8c-8.8 1.8-10.5 2.1-18.5 3.2l-.6.6c0 .1-.1.2-.1.4-6 14.1-5.9 11.1-10.8 22.2a6 6 0 0 0-.1-1.4l-1.2-24-.7-.8c-9.3 1.8-9.5 2.1-18 3.2l-.6.6a2.9 2.9 0 0 0-.1.9h.1a124 124 0 0 1 1.9 13c.5 4.3 1.1 8.6 1.7 12.8.8 7.1 1.3 10.6 2.4 21.3-5.8 9.6-7.1 13.3-12.7 21.7l.3.8c8.4-.3 10.2-.3 16.5-.3l1.3-1.6c4.7-10.1 40.3-71.8 40.3-71.8h-.1zm-302.7 6.9c4.8-3.3 5.4-7.9 1.3-10.3s-11.2-1.7-15.9 1.7-5.3 7.8-1.2 10.3 11.1 1.7 15.8-1.7z" fill="#fefefe"/><path d="M575.7 256.1l-6.9 12c-2.2 4.1-6.3 7.2-12.7 7.2l-11.1-.2 3.2-10.9h2.2a5.8 5.8 0 0 0 2.6-.4 3.3 3.3 0 0 0 1.5-1.3l4.1-6.6h17.2z" fill="#fefefe"/></symbol><symbol id="icon-visa-ab59f" viewBox="0 0 750 471"><path fill="#0E4595" d="M278.198 334.228l33.36-195.763h53.358l-33.384 195.763h-53.334zm246.109-191.541c-10.57-3.966-27.135-8.222-47.822-8.222-52.725 0-89.863 26.55-90.18 64.604-.297 28.128 26.514 43.82 46.754 53.184 20.77 9.597 27.75 15.716 27.65 24.283-.132 13.123-16.585 19.116-31.923 19.116-21.355 0-32.7-2.967-50.225-10.274l-6.877-3.113-7.488 43.823c12.463 5.466 35.508 10.2 59.438 10.445 56.09 0 92.502-26.248 92.916-66.884.2-22.27-14.015-39.215-44.8-53.187-18.65-9.056-30.072-15.1-29.95-24.27 0-8.136 9.667-16.837 30.558-16.837 17.447-.27 30.088 3.534 39.936 7.5l4.78 2.26 7.233-42.43m137.308-4.221h-41.23c-12.773 0-22.332 3.486-27.94 16.234L513.2 334.1h56.03s9.16-24.12 11.233-29.418c6.123 0 60.555.084 68.336.084 1.595 6.854 6.49 29.334 6.49 29.334h49.513l-43.188-195.636zm-65.417 126.408c4.414-11.28 21.26-54.724 21.26-54.724-.314.52 4.38-11.334 7.074-18.684l3.607 16.878s10.216 46.73 12.35 56.527H596.2v.002zM232.903 138.464l-52.24 133.496-5.564-27.13c-9.727-31.273-40.026-65.156-73.9-82.12l47.768 171.205 56.455-.064 84.004-195.385h-56.524"/><path fill="#F2AE14" d="M131.92 138.464H45.88l-.683 4.073c66.94 16.204 111.232 55.363 129.618 102.415l-18.71-89.96c-3.228-12.396-12.596-16.096-24.185-16.528"/></symbol><symbol id="icon-default-3c5b1" viewBox="0 0 750 471"><rect x="90.05" y="56.54" width="570" height="357.92" rx="30.44" ry="30.44" fill="#555"/><rect x="126.99" y="120.1" width="83.81" height="75.75" rx="15.41" ry="15.41" fill="#ccc" fill-opacity=".75"/><path fill="#ccc" fill-opacity=".75" d="M131.83 269.13h488.61v30.58H131.83zm0 76.17h130.05v30.58H131.83zm192.46 0h158.58v30.58H324.29z"/></symbol><symbol id="icon-alipay-9a095" viewBox="0 0 642.4 184.8"><title>alipay</title><path d="M45.5 100.4c-4.8.6-13.2 2.4-18 6.6-14.4 12.6-6 34.8 23.4 34.8 16.8 0 33.6-10.8 46.8-27.6-19.2-9-34.8-15.6-52.2-13.8z" fill="#2ba6df"/><path d="M153 115.8c27 9 33 9.6 33 9.6v-96C186 13.2 172.8 0 156 0H30C13.8 0 0 13.2 0 29.4v126c0 16.2 13.2 29.4 30 29.4h126c16.2 0 30-13.2 30-29.4v-1.2s-48-19.8-72.6-31.8c-16.2 19.8-37.2 32.4-59.4 32.4-37.2 0-49.8-32.4-31.8-53.4 3.6-4.8 10.2-9 20.4-11.4 15.6-3.6 40.8 2.4 64.2 10.2A116.77 116.77 0 0 0 117 75H44.4v-7.2h37.2V53.4H36v-7.2h45.6V27.6a2.9 2.9 0 0 1 2.8-3h18.2v22.2h45v6.6h-45v13.2h36.6a151.19 151.19 0 0 1-15.6 39z" fill="#2ba6df"/><path d="M271.7 43.6l39.6 85.8h-21l-10.8-22.8h-32.4l-10.8 22.8h-13.8L262.7 46a4.38 4.38 0 0 1 3.6-2.4zm-21 55.2h25.2l-12.6-27zm87.4 31.3h-19.2V48.5c0-2.4 1.2-3.6 4.2-3.6h15zm36-.6h-19.2V67.7c0-2.4 1.2-3.6 4.2-3.6h15zm23.5-64.1h12.6v6c2.4-1.8 4.8-3.6 7.8-4.2a25.94 25.94 0 0 1 10.2-1.8c4.2 0 7.8.6 10.8 2.4a23 23 0 0 1 8.4 6.6 30.36 30.36 0 0 1 5.4 9.6 34.78 34.78 0 0 1 1.8 11.4c0 5.4-.6 10.2-2.4 14.4s-3.6 8.4-6.6 11.4-6 6-10.2 7.8a32.25 32.25 0 0 1-13.2 2.4h-6.6a17.56 17.56 0 0 1-5.4-1.2v21.6H391V73.2c-.6-7.8 2.4-7.8 6.6-7.8zm12.6 46.8a8.86 8.86 0 0 0 .6 4.2 11 11 0 0 0 6 6 11.69 11.69 0 0 0 4.8.6c1.8 0 3-.6 4.8-1.8a7.45 7.45 0 0 0 3.6-4.8c.6-2.4 1.8-4.2 2.4-7.2a40.78 40.78 0 0 0 1.2-9 58.23 58.23 0 0 0-.6-10.8 29.63 29.63 0 0 0-2.4-7.8 33 33 0 0 0-3.6-4.8 6.81 6.81 0 0 0-4.8-1.8 7.53 7.53 0 0 0-3.6.6 12.85 12.85 0 0 0-3 1.8c-1.2.6-1.8 1.8-3 2.4a10.42 10.42 0 0 0-2.4 3v29.4zm81-46.8a67.15 67.15 0 0 1 12 1.2 21 21 0 0 1 8.4 3.6 19.52 19.52 0 0 1 4.8 5.4 16 16 0 0 1 1.8 7.2v47.4h-19.1v-4.8c-1.2 1.2-2.4 1.8-3 2.4l-3.6 1.8a8.76 8.76 0 0 1-4.2 1.2 16.4 16.4 0 0 1-5.4.6 30.33 30.33 0 0 1-7.8-1.2 12.42 12.42 0 0 1-6-3.6 8.71 8.71 0 0 1-3.6-5.4 18.75 18.75 0 0 1 0-13.2c.6-1.8 2.4-3.6 3.6-5.4s3.6-3 5.4-4.2q3.51-2 7.2-3.6c2.4-1.2 4.8-1.8 7.8-3a55.73 55.73 0 0 1 7.8-2.4l2.4-.6v-6.6a16.4 16.4 0 0 0-.6-5.4l-1.8-3.6c-.6-.6-1.8-1.8-2.4-1.8a7.53 7.53 0 0 0-3.6-.6 32.12 32.12 0 0 0-19.2 7.8l-4.2-6.6a47.07 47.07 0 0 1 23.4-6.6zm6.6 31.8a24.4 24.4 0 0 0-5.4 3l-5.4 3.6a8.06 8.06 0 0 0-3.6 4.2c-1.2 1.2-1.2 3-1.2 4.2a7.53 7.53 0 0 0 .6 3.6c.6 1.2.6 1.8 1.2 3s1.2 1.2 1.8 1.8 1.2.6 2.4.6a18.55 18.55 0 0 0 4.8-1.2l5.4-3.6V97.2zm46.6 54h-12.6l-.6-11.4s15.6.6 20.4-5.4c1.8-2.4 3-9 3-9l-31.2-60h21l19.8 39 17.4-39h13.8l-31.8 70.8c-1.2 2.4-6 15-19.2 15z" fill="#3f3a39"/><ellipse cx="364.6" cy="46.5" rx="9.6" ry="8.5" fill="#2ba6df"/><path d="M614.9 15.3h-6.6v-1.2h14.4v1.2h-6.6v18.6h-1.8V15.3zm10.7-1.2h2.4l4.2 11.4 1.8 4.2c.6-1.2 1.2-3 1.8-4.2l4.2-11.4h2.4v20.4H640v-18l-1.8 4.8-4.2 12h-1.2l-4.2-12-1.8-4.8v18H625V14.1z" fill="#3f3a39"/></symbol><symbol id="icon-applepay-aee48" viewBox="0 0 640 254.98"><title>applepay</title><path d="M93.4 18.1C107.1 0 126.1 0 126.1 0s2.7 17-10.7 33.3-30.9 14.3-30.9 14.3-3.3-13.5 8.9-29.5zM50 50.5c-24.1 0-50 21.7-50 62.8s30.3 94.3 54.7 94.3c8.3 0 21.4-8.6 34.5-8.6s22.3 8 34.2 8c26.5 0 46.1-55 46.1-55s-28-10.7-28-42.3a44.7 44.7 0 0 1 22.6-39.3s-11.5-20.8-40.7-20.8c-17 0-30.1 9.5-36.9 9.5-8.6.3-20.8-8.6-36.6-8.6zm250.5-36.3c36.6 0 62.5 25.3 62.5 62.2s-26.2 62.5-63.4 62.5h-43.8v64.6h-29.4V14.2zm-44.6 100h36.9c25.3 0 40.2-13.7 40.2-37.5s-14.6-37.8-40.2-37.8h-37zm112.7 48.5c0-25 19.3-39.3 54.4-41.7l38.4-2.1v-11c0-16.4-11-25.3-29.8-25.3-15.5 0-26.8 8-29.2 20.2H376c.9-25.3 24.7-43.7 56.5-43.7 34.8 0 57.1 18.4 57.1 46.4v97.6h-27v-23.8h-.6c-7.7 15.5-25.6 25.3-44.9 25.3-28.9.3-48.5-16.6-48.5-41.9zm92.8-12.8v-11l-34.5 2.4c-19.3 1.2-29.5 8.3-29.5 21.1s10.7 19.9 27.1 19.9c20.9-.3 36.9-13.7 36.9-32.4zm59.2 104.4v-23.2c2.1.6 6.5.6 8.9.6 13.4 0 21.1-5.7 25.9-20.8l2.1-7.4-51.7-142.9h30.6L573 176.9h.6l36.6-116.3H640l-53.3 149.1c-12.2 34.2-25.6 45.2-54.7 45.2-2.1.3-9-.3-11.4-.6z" fill="#333"/></symbol><symbol id="icon-boleto-63bed" viewBox="0 0 640 286.1"><title>boleto</title><path fill="#231f20" d="M44 0h30.5v126.1H44V0zm40.1 0h9.5v126.1h-9.5V0zm17.7 0h16.9v126.1h-16.9V0zM135 0h9.5v126.1H135V0zm13.6 0h7.3v126.1h-7.3V0zM20.9 0h9.4v285.4h-9.4V0zM0 0h16.9v285.4H0V0zm206.3 0h30.5v126.1h-30.5V0zm40.1 0h9.5v126.1h-9.5V0zm17.7 0H281v126.1h-16.9V0zm33.2 0h9.5v126.1h-9.5V0zm13.6 0h7.3v126.1h-7.3V0zM183.2 0h9.4v126.1h-9.4V0zm-20.9 0h16.9v126.1h-16.9V0zm167.8 0h17v126.1h-17V0zm33.3 0h9.4v126.1h-9.4V0zm13.5 0h7.3v126.1h-7.3V0zm34.6 0h9.4v126.1h-9.4V0zm-20.8 0h16.9v126.1h-16.9V0zm42.8 0h9.5v126.1h-9.5V0zm13.6 0h7.2v126.1h-7.2V0zm34.5 0h9.5v126.1h-9.5V0zm-20.8 0h16.9v126.1h-16.9V0zm38.5 0h30.5v126.1h-30.5V0zm40.1 0h9.5v126.1h-9.5V0zm17.7 0H574v126.1h-16.9V0zm33.2 0h9.5v126.1h-9.5V0zm13.6 0h7.2v126.1h-7.2V0zm19.2 0H640v285.4h-16.9V0z"/><path fill="#fff" d="M34.5 286.1h584.3v-160H34.5v160z"/><path d="M45.5 279.9V135.2h54.3q16.6 0 26.6 4.4a34.06 34.06 0 0 1 15.7 13.5 35.39 35.39 0 0 1 5.7 19.1 32.91 32.91 0 0 1-5 17.5q-5 8.21-15.2 13.2 13.1 3.8 20.2 13.1a35 35 0 0 1 7.1 21.9 42.23 42.23 0 0 1-4.3 18.9 36.79 36.79 0 0 1-10.6 13.5 44.93 44.93 0 0 1-15.8 7.1 96.4 96.4 0 0 1-23.4 2.4zM64.7 196H96c8.5 0 14.6-.6 18.3-1.7s8.6-3.9 11-7.2a20.9 20.9 0 0 0 3.7-12.7 23.14 23.14 0 0 0-3.5-12.7 17.41 17.41 0 0 0-9.9-7.5q-6.4-2-22-2H64.7V196zm0 66.9h36.1a82 82 0 0 0 13.1-.7 30.93 30.93 0 0 0 11.1-3.9 21.09 21.09 0 0 0 7.3-8.1 25.15 25.15 0 0 0 2.9-12.2 24 24 0 0 0-4.2-14.1 21.74 21.74 0 0 0-11.5-8.4c-4.9-1.6-12-2.4-21.2-2.4H64.7v49.8zm107.6-35.4q0-29.1 16.2-43.1 13.5-11.59 33-11.6 21.6 0 35.3 14.2t13.7 39q0 20.21-6.1 31.8a43 43 0 0 1-17.7 18 51.33 51.33 0 0 1-25.3 6.4q-22 0-35.6-14.1t-13.5-40.6zm18.2 0q0 20.1 8.8 30.1a29.5 29.5 0 0 0 44.3 0q8.81-10.1 8.8-30.6t-8.9-29.4a29.49 29.49 0 0 0-41.6-2.65 28.12 28.12 0 0 0-2.6 2.55q-8.81 10-8.8 30zM291 279.9V135.2h17.8v144.7H291zM407.8 246l18.4 2.4q-4.31 16-16 24.9t-30 8.9q-22.91 0-36.4-14.2t-13.4-39.7q0-26.4 13.6-41t35.3-14.6q21 0 34.3 14.3t13.3 40.2c0 1 0 2.6-.1 4.7h-78.2c.7 11.5 3.9 20.3 9.8 26.4a29 29 0 0 0 21.9 9.2 27 27 0 0 0 16.6-5q6.9-5.21 11-16.5zm-58.2-28.5H408c-.8-8.8-3-15.4-6.7-19.8a27.1 27.1 0 0 0-22-10.3 28.22 28.22 0 0 0-20.6 8.2q-8.3 8.2-9.2 21.9zm137.7 46.6l2.4 15.7a66.4 66.4 0 0 1-13.4 1.6c-6.4 0-11.4-1-15-3.1a17.19 17.19 0 0 1-7.5-8.1q-2.2-5-2.2-21v-60.4h-13V175h13.1v-25.9l17.8-10.7V175h17.8v13.7h-17.8v61.5c0 5.1.3 8.4.9 9.8a7.37 7.37 0 0 0 3 3.5 12.05 12.05 0 0 0 6.1 1.3 56.79 56.79 0 0 0 7.7-.7zm10.9-36.6q0-29.1 16.2-43.1 13.5-11.59 33-11.6 21.6 0 35.3 14.2t13.7 39q0 20.21-6.1 31.8a43 43 0 0 1-17.7 18 51.33 51.33 0 0 1-25.3 6.4q-22 0-35.6-14.1t-13.5-40.6zm18.2 0q0 20.1 8.8 30.1a29.5 29.5 0 0 0 44.3 0q8.8-10.1 8.8-30.6t-8.9-29.4a29.49 29.49 0 0 0-41.63-2.65 28.12 28.12 0 0 0-2.57 2.55q-8.81 10-8.8 30z" fill="#231f20"/></symbol><symbol id="icon-ideal-9a873" viewBox="0 0 382.2 333.2"><title>ideal</title><path fill="#010101" d="M42.5 187.6h61.2v101.69H42.5z"/><circle cx="257.6" cy="205.6" r="34.7" transform="rotate(-80.78 125.167 279.23)" fill="#010101"/><path d="M219.7 0H0v333.2h219.7c48-.7 86-12.6 113-35.5 32.8-27.9 49.5-72 49.5-131 0-28.2-4.4-53.5-13-75.2a137 137 0 0 0-36.3-52.4C305.1 14.2 266 .8 219.7.1zm-4.1 22.1c42.6 0 78.1 11.5 102.6 33.4C346 80.2 360 117.6 360 166.6c0 97.2-47.3 144.5-144.5 144.5H22.1v-289z" fill="#010101"/><path d="M209.5 289.3h-77.6V49.1h74.5c64.8 0 133.7 25.5 133.7 120.4 0 100.3-69 119.8-133.7 119.8z" fill="#cd1c6a"/><path d="M118.5 111.1h21.3a41.13 41.13 0 0 1 11 1.1 19.42 19.42 0 0 1 8.7 5.3 25.35 25.35 0 0 1 5.5 9.4 42.94 42.94 0 0 1 1.9 13.7 38.27 38.27 0 0 1-1.8 12.3 25.55 25.55 0 0 1-6.2 10.2 20.65 20.65 0 0 1-8.2 4.6 35.47 35.47 0 0 1-10.3 1.2h-22v-57.8h.1zm11.7 9.8v38.2h8.7a31.94 31.94 0 0 0 7.1-.6 10.75 10.75 0 0 0 4.7-2.4 12.27 12.27 0 0 0 3.1-5.6 37.17 37.17 0 0 0 1.2-10.6 34.43 34.43 0 0 0-1.2-10.3 13.24 13.24 0 0 0-3.3-5.6 11.12 11.12 0 0 0-5.4-2.7 54.07 54.07 0 0 0-9.6-.5z" fill="#fff"/><path d="M116.9 109.5v61h23.5a37.18 37.18 0 0 0 10.8-1.3 22.14 22.14 0 0 0 8.8-5 27.17 27.17 0 0 0 6.6-10.8 39.69 39.69 0 0 0 1.9-12.8 44.36 44.36 0 0 0-2-14.2 27.14 27.14 0 0 0-5.9-9.9 21 21 0 0 0-9.4-5.8 42.89 42.89 0 0 0-11.4-1.2zm22.9 3.2a40.62 40.62 0 0 1 10.6 1 17.84 17.84 0 0 1 8 4.9 23.89 23.89 0 0 1 5.2 8.8 41.52 41.52 0 0 1 1.8 13.2 36.85 36.85 0 0 1-1.7 11.8 24.12 24.12 0 0 1-5.8 9.6 19.22 19.22 0 0 1-7.6 4.2 34.12 34.12 0 0 1-9.8 1.1H120v-54.6z" fill="#fff"/><path d="M128.5 119.3v41.4h10.3a33.13 33.13 0 0 0 7.5-.6 12.5 12.5 0 0 0 5.4-2.8 13.62 13.62 0 0 0 3.5-6.3 38.82 38.82 0 0 0 1.2-11 35.47 35.47 0 0 0-1.3-10.8 14.74 14.74 0 0 0-3.7-6.2 12.72 12.72 0 0 0-6.2-3.1 52.89 52.89 0 0 0-9.9-.6zm6.8 3.2a55 55 0 0 1 9.3.5 9.72 9.72 0 0 1 4.7 2.3 11.76 11.76 0 0 1 2.9 4.9 33.39 33.39 0 0 1 1.1 9.8 36.2 36.2 0 0 1-1.1 10.1 10.84 10.84 0 0 1-2.6 4.9 9.21 9.21 0 0 1-4.1 2 30.74 30.74 0 0 1-6.7.5h-7.1v-35zm44.8 46.4v-57.8h42.8v9.8h-31.1v12.8h29v9.8h-29v15.6H224v9.8z" fill="#fff"/><path d="M178.5 109.5v61h47.1v-13h-32.3v-12.4h29v-13h-29v-9.6h31.1v-13h-45.9zm42.8 3.2v6.6h-31.1v16h29v6.6h-29v18.8h32.2v6.6h-40.7v-54.6zm68 56.2h-12.7l-5-13.1h-23.1l-4.8 13.1h-12.4l22.4-57.8h12.4zM267.8 146l-8-21.4L252 146z" fill="#fff"/><path d="M252.7 109.5l-23.7 61h15.8l4.8-13.1h20.9l5 13.1h16.1l-24.4-61zm12.4 3.2l21.9 54.7h-9.3l-5-13.1h-25.4l-4.8 13.1h-9l21.2-54.7z" fill="#fff"/><path d="M249.8 147.6h20.3L259.8 120zm10.1-18.5l5.7 15.3h-11.3zm39.1 39.8v-57.3h11.7v47.5h29v9.8z" fill="#fff"/><path d="M297.5 110v60.5h43.9v-13h-29.1V110zm11.6 3.1v47.5h29v6.6h-37.5v-54.1z" fill="#fff"/></symbol><symbol id="icon-paypal-c8068" viewBox="0 0 670.1 178.63"><title>paypal</title><path d="M113.43 8.67Q100.83.02 80.55 0H28.2q-6.21 0-6.87 6.22L.05 139.7a4.36 4.36 0 0 0 1 3.6 4 4 0 0 0 3.27 1.64h24.86q6.54 0 7.2-6.22l5.89-36a6.35 6.35 0 0 1 2.29-4.26 10.15 10.15 0 0 1 4.91-2.13 34.54 34.54 0 0 1 5.56-.48q2.61 0 6.22.32c2.39.22 3.92.33 4.58.33q28.13 0 44.16-15.87t16-44q0-19.31-12.6-28zm-27 40.08q-1.65 11.46-8.51 15t-19.63 3.6l-10.79.33 5.56-35a3.91 3.91 0 0 1 4.25-3.6h6.22q13.08 0 19 3.76t3.92 15.87z" fill="#003087"/><path d="M665.84 0h-24.2a3.92 3.92 0 0 0-4.26 3.61l-21.26 136.1-.33.65a4.59 4.59 0 0 0 1.31 3.11 4.19 4.19 0 0 0 3.27 1.47h21.59q6.21 0 6.87-6.22L670.1 4.91v-.33q0-4.57-4.26-4.58z" fill="#009cde"/><path d="M373.36 52.68a4.64 4.64 0 0 0-1.31-3.11 3.87 3.87 0 0 0-2.94-1.47h-25.19a6.9 6.9 0 0 0-5.89 3.27l-34.68 51-14.4-49.08q-1.63-5.23-7.2-5.23h-24.54a3.87 3.87 0 0 0-2.94 1.47 4.64 4.64 0 0 0-1.31 3.11q0 .66 6.38 19.3t13.71 40.28q7.37 21.6 7.69 22.9-26.84 36.65-26.83 39.26c0 2.84 1.42 4.25 4.26 4.25h25.19a6.91 6.91 0 0 0 5.89-3.27l83.43-120.4a3.2 3.2 0 0 0 .65-2.29z" fill="#003087"/><path d="M607.94 48.1h-24.89q-4.57 0-5.56 10.79-8.44-13.07-31.06-13.07-23.55 0-40.08 17.66t-16.52 41.54q0 19.32 11.29 30.76t30.26 11.45a51.64 51.64 0 0 0 19.3-3.93q9.82-3.91 15.37-10.48a28.35 28.35 0 0 1-.65 2.95 17.78 17.78 0 0 0-.66 3.92c0 3.5 1.42 5.24 4.26 5.24h22.57q6.21 0 7.2-6.22l13.41-85.39a4.4 4.4 0 0 0-1-3.6 4 4 0 0 0-3.27-1.63zm-42.7 64.45a27.71 27.71 0 0 1-20.12 8.18q-9.5 0-15.37-5.24t-5.89-14.39a28.07 28.07 0 0 1 8.19-20.45 27.24 27.24 0 0 1 20.28-8.34q9.15 0 15.21 5.4t6.06 14.89a26.9 26.9 0 0 1-8.35 20z" fill="#009cde"/><path d="M236.28 48.1h-24.86q-4.59 0-5.57 10.79-8.8-13.07-31.08-13.07-23.55 0-40.08 17.66t-16.52 41.54q0 19.32 11.29 30.76t30.26 11.45a50.93 50.93 0 0 0 19-3.93 41.14 41.14 0 0 0 15.68-10.48 22.28 22.28 0 0 0-1.31 6.87c0 3.5 1.42 5.24 4.26 5.24h22.57q6.21 0 7.2-6.22l13.41-85.39a4.4 4.4 0 0 0-1-3.6 4 4 0 0 0-3.27-1.63zm-42.69 64.61a28.41 28.41 0 0 1-20.45 8q-9.5 0-15.22-5.24t-5.72-14.39a28.07 28.07 0 0 1 8.18-20.45 27.26 27.26 0 0 1 20.28-8.34q9.16 0 15.22 5.4t6 14.89a26.68 26.68 0 0 1-8.35 20.11z" fill="#003087"/><path d="M485.05 8.67Q472.45.02 452.17 0h-52q-6.54 0-7.2 6.22L371.73 139.7a4.36 4.36 0 0 0 1 3.6 4 4 0 0 0 3.27 1.64h26.83q3.92 0 5.23-4.25l5.89-37.95a6.39 6.39 0 0 1 2.29-4.26 10.11 10.11 0 0 1 4.91-2.13 34.54 34.54 0 0 1 5.56-.48q2.61 0 6.21.32c2.4.22 3.93.33 4.58.33q28.14 0 44.17-15.87t16-44q0-19.31-12.59-28zm-33.5 53.82q-7.2 4.91-21.59 4.91l-10.47.33 5.56-35a3.92 3.92 0 0 1 4.26-3.6h5.88a80.09 80.09 0 0 1 11.46.65 16.16 16.16 0 0 1 8.17 4.09q3.93 3.44 3.93 10 0 13.74-7.2 18.65z" fill="#009cde"/></symbol><symbol id="icon-sofort-73082" viewBox="0 0 670 207.71"><title>sofort</title><path d="M221.6 0a61.68 61.68 0 0 0-26.4 6c-11.9 5.6-22.7 15.1-31.6 27.6a119.65 119.65 0 0 0-14.5 28c-7.2 19.8-7.2 35.9.2 46.6 4.2 6 12.9 13.2 30.7 13.2h.1c32.3 0 56.5-21.2 71.8-63 4-11.1 9.4-31.7-.4-45.6-5.9-8.4-15.9-12.7-30-12.7zm195.1 0a61.68 61.68 0 0 0-26.4 6c-11.9 5.6-22.7 15.1-31.6 27.6a119.27 119.27 0 0 0-14.5 28c-7.3 19.8-7.2 35.9.2 46.6 4.2 6 12.9 13.2 30.7 13.2h.1c32.3 0 56.5-21.2 71.8-63 4.1-11.1 9.4-31.7-.4-45.6C440.8 4.3 430.8 0 416.8 0zm-299 1.7c-10.6 0-21 0-30.2 4.7S70.1 20.5 63.8 39.3a37.36 37.36 0 0 0-2.2 10.6 15.75 15.75 0 0 0 1.6 7.9 22.75 22.75 0 0 0 6.6 7.5 32.19 32.19 0 0 0 10 5.1l4.5 1.3 6.8 2a14.14 14.14 0 0 1 3.2 1.3 6.39 6.39 0 0 1 2.5 2.5 5.6 5.6 0 0 1 .6 2.4 8.1 8.1 0 0 1-.5 2.8 7.7 7.7 0 0 1-4.7 5.2c-2.5 1-6.2 1.3-11.7 1.4H11L0 119.5h74.4c7 0 19.8 0 32.1-5.2s24.1-15.7 29.1-36.5c1.9-7.8 1.3-14.2-1.8-19.3s-8.7-8.7-16.8-11l-4-1.1-5.8-1.7a7.87 7.87 0 0 1-4.6-3.3 6.5 6.5 0 0 1-.7-5.3 7.7 7.7 0 0 1 3.9-4.6 15.63 15.63 0 0 1 7.5-1.7h43.2l.9-1.4a95.33 95.33 0 0 1 27.9-26.7zm194.3 0c-19.2 0-33.6 9.7-40.3 27.9L239 119.4h35.8l16.8-46.1h31.6l9-24.7h-31.5l5.1-14.3a7.6 7.6 0 0 1 7.3-4.6h37.3l.9-1.4c7.9-11.2 19.1-20.2 29.5-26.6zm166 .1l-42.8 117.6h36.4L487.2 78c.8 1.7 10 41.4 10 41.4h38.2s-7-29.2-12.1-41a63.76 63.76 0 0 0-4.5-9.3c10.8-4 26.5-12.6 33-30.1 4-10.7 3.8-19.4-.7-25.8S534.8 1.7 517.7 1.7h-39.6zm74.7 0a29.41 29.41 0 0 1 5.9 6.3c4.2 6.1 5.9 13.4 4.9 21.7h21.7l-32.7 89.8h32.6l32.8-89.9h41.9l10.2-28zM502 26.1h6c11 0 15.1 3.2 11.4 13.2s-9.8 15.2-21.7 15.2h-6.2L502.1 26zm-289 .6c11.2 0 13.7 6.5 3.9 33.4-10.1 27.6-17.4 34.6-28.4 34.6-10.7 0-14.5-6.8-4.5-34.3 7.5-20.5 17.2-33.6 29-33.6zm195.1 0c11.2 0 13.7 6.5 3.9 33.4s-17.4 34.6-28.4 34.6c-10.7 0-14.5-6.8-4.5-34.3 7.5-20.5 17.2-33.6 29-33.6z" fill="#ec8023"/><path d="M35.4 131.8a8.92 8.92 0 0 0-5.2 1.2 9.24 9.24 0 0 0-2.9 4.5c-.7 2.1-.9 3.5-.3 4.3s1.9 1.2 4.3 1.2a8.58 8.58 0 0 0 5.2-1.3 9.31 9.31 0 0 0 2.8-4.4c.8-2.1.9-3.5.4-4.3s-1.9-1.2-4.3-1.2zm19.7 0a8.77 8.77 0 0 0-5.2 1.2 9.24 9.24 0 0 0-2.9 4.5c-.7 2.1-.9 3.5-.4 4.3s1.9 1.2 4.2 1.2a8.72 8.72 0 0 0 5.2-1.3 9.28 9.28 0 0 0 2.9-4.4c.8-2.1.9-3.5.4-4.3s-1.8-1.2-4.1-1.2zm368.5 15.3a31.72 31.72 0 0 0-8 1 27.2 27.2 0 0 0-7.4 3.1 26 26 0 0 0-6.1 5.3 24 24 0 0 0-4.2 7.4 16.38 16.38 0 0 0-1.2 6.3 10.27 10.27 0 0 0 1.2 4.5 10.71 10.71 0 0 0 2.8 3.3 25 25 0 0 0 3.7 2.5l3.8 2.1a17.84 17.84 0 0 1 3.2 2.1 6.32 6.32 0 0 1 1.9 2.5 4.7 4.7 0 0 1-.2 3.4 10.74 10.74 0 0 1-4.5 5.5 13.22 13.22 0 0 1-3.5 1.5 15.35 15.35 0 0 1-4.1.5 17.41 17.41 0 0 1-5.5-.8 17.84 17.84 0 0 1-3.7-1.6l-2.4-1.6a2.59 2.59 0 0 0-1.5-.7l-.9.2a2.77 2.77 0 0 0-.8.8 9.46 9.46 0 0 0-.9 1.5 18.49 18.49 0 0 0-.9 2.3 17.68 17.68 0 0 0-.9 3.2 2.51 2.51 0 0 0 .2 1.7 5.48 5.48 0 0 0 1.4 1.4 13 13 0 0 0 2.8 1.5 24.38 24.38 0 0 0 4.1 1.2 27.21 27.21 0 0 0 5.4.5 34 34 0 0 0 8.8-1.2 30.8 30.8 0 0 0 8.1-3.5 28.39 28.39 0 0 0 6.8-5.8 26 26 0 0 0 4.7-8.1 15.7 15.7 0 0 0 1.1-6.1 10.27 10.27 0 0 0-1.2-4.5 10.71 10.71 0 0 0-2.8-3.3 27.82 27.82 0 0 0-3.5-2.5l-3.9-2.1a19.61 19.61 0 0 1-3.3-2.1 6 6 0 0 1-1.9-2.5 4.81 4.81 0 0 1 .2-3.4 9.32 9.32 0 0 1 1.4-2.5 8.39 8.39 0 0 1 2.2-2 11.11 11.11 0 0 1 2.9-1.3 12.52 12.52 0 0 1 3.6-.5 13.59 13.59 0 0 1 4.3.6 16.26 16.26 0 0 1 3.2 1.4l2.2 1.4a2.6 2.6 0 0 0 1.4.6 1.54 1.54 0 0 0 .9-.3 3 3 0 0 0 .8-.9l.8-1.5.9-2.2.7-2a9.78 9.78 0 0 0 .3-1.3 3.57 3.57 0 0 0 0-.8 2.28 2.28 0 0 0-.3-.8 4.41 4.41 0 0 0-1.4-1.1 15.74 15.74 0 0 0-2.8-1.2 22.3 22.3 0 0 0-3.6-.9 24.32 24.32 0 0 0-4-.3zm187.6 0a41.91 41.91 0 0 0-25.1 8.2 46 46 0 0 0-9.7 9.7 50.57 50.57 0 0 0-6.9 12.9 36.06 36.06 0 0 0-2.5 12.4 17 17 0 0 0 2.5 9.3 15.43 15.43 0 0 0 7.3 5.8 30.46 30.46 0 0 0 11.8 2l4.8-.2 4.9-.7 4.9-1.1 4.1-1.2a5.73 5.73 0 0 0 2.5-1.6 7.88 7.88 0 0 0 1.3-2.4l8.5-23.3a5.53 5.53 0 0 0 .4-1.6 2.37 2.37 0 0 0-.2-1.2 1.58 1.58 0 0 0-.7-.7 2.51 2.51 0 0 0-1.2-.3h-19.7l-.8.3-.8.8a8.44 8.44 0 0 0-.8 1.4 19.5 19.5 0 0 0-.9 2.1 9.82 9.82 0 0 0-.8 3.5c.1.7.4 1 .9 1h11.1l-4.9 13.5a20.45 20.45 0 0 1-4.1 1.4 19.56 19.56 0 0 1-4.1.5 16.79 16.79 0 0 1-7-1.3 9.15 9.15 0 0 1-4.3-3.9 12.38 12.38 0 0 1-1.4-6.4 27.68 27.68 0 0 1 1.9-8.8 34.61 34.61 0 0 1 4.3-8.3 31.11 31.11 0 0 1 6.1-6.5 27.12 27.12 0 0 1 7.4-4.2 25.5 25.5 0 0 1 14.9-.7 26.91 26.91 0 0 1 4.5 1.8 18.28 18.28 0 0 1 2.8 1.8 3 3 0 0 0 1.6.8l.8-.2a2.9 2.9 0 0 0 .8-.8 10.83 10.83 0 0 0 .9-1.5 23.82 23.82 0 0 0 .9-2.3 17.67 17.67 0 0 0 1-3.4 2.72 2.72 0 0 0-.2-1.8 5.72 5.72 0 0 0-1.6-1.5 14.58 14.58 0 0 0-3.3-1.6 29.88 29.88 0 0 0-5-1.3 37.93 37.93 0 0 0-6.9-.3zm-369.2.7h-3.6a4.44 4.44 0 0 0-2.1.6 2.49 2.49 0 0 0-1 1.4 14.38 14.38 0 0 0-.5 2.6l-5.3 51a4.85 4.85 0 0 0 0 1.7 1.52 1.52 0 0 0 1 1 7.29 7.29 0 0 0 2.3.5h8.2a10 10 0 0 0 2.6-.5 4.31 4.31 0 0 0 1.7-1 8.71 8.71 0 0 0 1.2-1.7l22.3-37h.1l-4.1 37a4.42 4.42 0 0 0 0 1.7 1.5 1.5 0 0 0 .9 1 7.29 7.29 0 0 0 2.3.5h7.9a11.5 11.5 0 0 0 2.6-.5 4.77 4.77 0 0 0 1.8-1 7.88 7.88 0 0 0 1.4-1.7l31.9-50.9a26 26 0 0 0 1.4-2.6 1.6 1.6 0 0 0 .1-1.5 1.78 1.78 0 0 0-1.4-.6h-6.4l-2 .4a2.66 2.66 0 0 0-1.1.8l-.8 1.2-26.5 44.6h-.1l5.2-44.4a4.11 4.11 0 0 0 0-1.4 1.19 1.19 0 0 0-.7-.8 5.29 5.29 0 0 0-1.8-.4h-6.7l-2.1.4a3.19 3.19 0 0 0-1.3.8 8.68 8.68 0 0 0-1 1.4l-26.8 44.4 6-44.8a4.37 4.37 0 0 0 .1-1.3.91.91 0 0 0-.6-.7 5 5 0 0 0-1.8-.3H242zm140.9 0H380l-2 .4a3.16 3.16 0 0 0-1.2.6 2.06 2.06 0 0 0-.6.8l-20.1 55.2a1 1 0 0 0 0 .8 1.19 1.19 0 0 0 .7.6l1.7.4h5.9l1.9-.4a3.31 3.31 0 0 0 1.2-.6 2.06 2.06 0 0 0 .6-.8l20.1-55.2a1 1 0 0 0 0-.8 1.31 1.31 0 0 0-.8-.6l-1.7-.4zm-361.3 0h-2.9l-2 .4a2.89 2.89 0 0 0-1.2.6 2.06 2.06 0 0 0-.6.8L2 185.4a27.7 27.7 0 0 0-2 9.8 12.13 12.13 0 0 0 2.1 7 11.84 11.84 0 0 0 5.9 4.2 28.27 28.27 0 0 0 9.4 1.3 37.93 37.93 0 0 0 11-1.6 31.31 31.31 0 0 0 16.5-11.7 38 38 0 0 0 5.1-9.6l12.8-35a1 1 0 0 0-.7-1.4l-1.7-.4h-5.7l-2 .4a3 3 0 0 0-1.2.6 2.06 2.06 0 0 0-.6.8L38.1 185a23.56 23.56 0 0 1-2.8 5.5 18.74 18.74 0 0 1-3.9 4.1 16.23 16.23 0 0 1-4.7 2.5 16.52 16.52 0 0 1-5.3.9 11.65 11.65 0 0 1-4.7-.8 6.2 6.2 0 0 1-2.9-2.5 7.76 7.76 0 0 1-.9-4.2 19.89 19.89 0 0 1 1.3-6L26.8 150a1.1 1.1 0 0 0 0-.8 1.19 1.19 0 0 0-.8-.6l-1.7-.4h-2.7zm438.2 0h-2.9l-2 .4a3.16 3.16 0 0 0-1.2.6 2.06 2.06 0 0 0-.6.8l-12.9 35.5a27.48 27.48 0 0 0-2 9.8 12.06 12.06 0 0 0 2.1 7 11.84 11.84 0 0 0 5.9 4.2 28 28 0 0 0 9.4 1.4 37.89 37.89 0 0 0 10.9-1.5 31.31 31.31 0 0 0 16.5-11.7 38 38 0 0 0 5.1-9.6l12.8-35a1.1 1.1 0 0 0 0-.8 1.19 1.19 0 0 0-.7-.6l-1.7-.4h-5.7l-2 .4a3 3 0 0 0-1.2.6 2.06 2.06 0 0 0-.6.8l-12.8 35.2a23.56 23.56 0 0 1-2.8 5.5 19 19 0 0 1-3.9 4.1 16.11 16.11 0 0 1-4.7 2.5 16.52 16.52 0 0 1-5.3.9 11.82 11.82 0 0 1-4.7-.8 6.2 6.2 0 0 1-2.9-2.5 7.76 7.76 0 0 1-.9-4.2 19.59 19.59 0 0 1 1.3-6l12.6-34.5a1 1 0 0 0 0-.8 1.31 1.31 0 0 0-.8-.6l-1.7-.4h-2.8zm101.6.1h-2.7l-1.8.4-1.1.6a2.06 2.06 0 0 0-.6.8l-10 27.4-2.3 6.5-2.2 6.6c-.1-1.2-.2-2.4-.4-3.6l-.4-3.7c-.1-1.3-.3-2.5-.5-3.7l-.6-3.8-3.6-21.4a17 17 0 0 0-.6-3 4.72 4.72 0 0 0-1.1-1.9 3.92 3.92 0 0 0-1.7-1 11 11 0 0 0-2.8-.3h-6.4a6.25 6.25 0 0 0-3.4 1.1 6.19 6.19 0 0 0-2.4 3.2l-19.1 52.5a1.37 1.37 0 0 0-.1.8 1.1 1.1 0 0 0 .6.6l1.5.4h5.3l1.8-.4 1.1-.6a2.3 2.3 0 0 0 .5-.8l11.1-30.6c.8-2.3 1.6-4.5 2.3-6.7s1.4-4.3 2.1-6.5h.1a52.76 52.76 0 0 0 .4 5.5c.2 1.9.4 3.6.7 5.3l4.6 27.3a30.93 30.93 0 0 0 .7 3.7 6.44 6.44 0 0 0 1.1 2.3 3.38 3.38 0 0 0 1.7 1.2 8.77 8.77 0 0 0 2.6.3h5.1l1.8-.2a5.64 5.64 0 0 0 1.7-.8 6.88 6.88 0 0 0 1.5-1.4 6.18 6.18 0 0 0 1-1.9l19.1-52.5a1.3 1.3 0 0 0 .1-.8 1.1 1.1 0 0 0-.6-.6 3.94 3.94 0 0 0-1.5-.4h-2.5zm-421.7.2a5.09 5.09 0 0 0-2.8.9 5.57 5.57 0 0 0-2.1 2.9l-18.5 50.9c-.5 1.3-.5 2.3 0 2.9a2.6 2.6 0 0 0 2.2.9h29.4l.8-.3a2.9 2.9 0 0 0 .8-.8 7.94 7.94 0 0 0 .9-1.4 16.47 16.47 0 0 0 .9-2.2c.3-.9.5-1.6.7-2.2a5.57 5.57 0 0 0 .2-1.4 1.24 1.24 0 0 0-.3-.8.92.92 0 0 0-.7-.2h-21l6-16.5h17.7l.8-.2.8-.7a6.94 6.94 0 0 0 .8-1.4 22.07 22.07 0 0 0 .9-2.2 17.83 17.83 0 0 0 .7-2.1 4.74 4.74 0 0 0 .2-1.4 1.12 1.12 0 0 0-.3-.8.92.92 0 0 0-.7-.2h-17.7l5.2-14.3h20.8l.8-.2.8-.8a7.59 7.59 0 0 0 .9-1.4 19.5 19.5 0 0 0 .9-2.1 18.75 18.75 0 0 0 .7-2.2 6.06 6.06 0 0 0 .2-1.4 1.12 1.12 0 0 0-.3-.8l-.6-.2h-29.1zm49 0a5.09 5.09 0 0 0-2.8.9 5.57 5.57 0 0 0-2.1 2.9L164.5 205a1 1 0 0 0 .7 1.4l1.7.4h5.8l1.9-.4a3.16 3.16 0 0 0 1.2-.6 1.91 1.91 0 0 0 .6-.8l8.1-22.3h3.7a7.21 7.21 0 0 1 3.1.6 4.41 4.41 0 0 1 1.9 1.7 8.34 8.34 0 0 1 1 2.9c.2 1.1.3 2.5.4 3.9l.5 13a2.74 2.74 0 0 0 .1.9 1.19 1.19 0 0 0 .7.6l1.7.3h6.6l2.1-.3a2.48 2.48 0 0 0 1.1-.6 2.3 2.3 0 0 0 .5-.8 4.86 4.86 0 0 0 .2-1.2v-2.5l-.7-11.5a28.67 28.67 0 0 0-.4-3.7 13.36 13.36 0 0 0-.9-2.9 7.48 7.48 0 0 0-1.4-2.2 7.67 7.67 0 0 0-1.9-1.5 28.46 28.46 0 0 0 5.7-2.3 23.93 23.93 0 0 0 4.8-3.3 22.88 22.88 0 0 0 3.8-4.3 24.51 24.51 0 0 0 2.7-5.3 17.57 17.57 0 0 0 1.2-6.2 8.5 8.5 0 0 0-5-7.8 18 18 0 0 0-5.7-1.7l-2.6-.2h-19zm142.7 0a5.09 5.09 0 0 0-2.8.9 5.57 5.57 0 0 0-2.1 2.9L308 202.8c-.5 1.3-.5 2.3 0 2.9a2.6 2.6 0 0 0 2.2.9h29.4l.8-.3a2.77 2.77 0 0 0 .8-.8 7.59 7.59 0 0 0 .9-1.4 22.07 22.07 0 0 0 .9-2.2 20.84 20.84 0 0 0 .7-2.2 5.57 5.57 0 0 0 .2-1.4 1.12 1.12 0 0 0-.3-.8.92.92 0 0 0-.7-.2h-21l6-16.5h17.7l.8-.2a2.83 2.83 0 0 0 .8-.7 7.78 7.78 0 0 0 .8-1.4 22.07 22.07 0 0 0 .9-2.2 19.88 19.88 0 0 0 .7-2.1 4.74 4.74 0 0 0 .2-1.4 1.24 1.24 0 0 0-.3-.8.92.92 0 0 0-.7-.2h-17.7l5.2-14.3h20.9l.8-.2.8-.8a7.59 7.59 0 0 0 .9-1.4 19.5 19.5 0 0 0 .9-2.1 18.75 18.75 0 0 0 .7-2.2 5.57 5.57 0 0 0 .2-1.4 1.12 1.12 0 0 0-.3-.8l-.6-.2h-29.2zm-247.8 0a5.09 5.09 0 0 0-2.8.9 5.57 5.57 0 0 0-2.1 2.9l-18.5 50.9c-.5 1.3-.5 2.3 0 2.9a2.6 2.6 0 0 0 2.2.9h15.5a45.57 45.57 0 0 0 6.5-.4 36.13 36.13 0 0 0 5.9-1.3 31.5 31.5 0 0 0 5.5-2.3 25.89 25.89 0 0 0 4.8-3.3 25.53 25.53 0 0 0 4-4.5 24 24 0 0 0 2.9-5.6 15.4 15.4 0 0 0 1.1-5.4 9.37 9.37 0 0 0-.9-4.2 7.72 7.72 0 0 0-2.6-2.9 10.72 10.72 0 0 0-4-1.6 20.08 20.08 0 0 0 4.1-1.9 20.41 20.41 0 0 0 3.5-2.7 19.79 19.79 0 0 0 2.8-3.4 19.18 19.18 0 0 0 2-4 14.58 14.58 0 0 0 1-6.6 7.48 7.48 0 0 0-2.2-4.6 11.71 11.71 0 0 0-5.3-2.7 35.18 35.18 0 0 0-8.8-.9zm4.9 8.9h6a13.86 13.86 0 0 1 4.2.5 4.76 4.76 0 0 1 2.2 1.4 3.7 3.7 0 0 1 .8 2.3 8.78 8.78 0 0 1-.6 3.2 12.54 12.54 0 0 1-1.6 3 11.62 11.62 0 0 1-2.4 2.5 11.2 11.2 0 0 1-3.2 1.7 13.31 13.31 0 0 1-4.3.6H83zm105.2.2h8.5l1.9.4c1.8.6 2.9 1.5 3.3 2.8a7.94 7.94 0 0 1-.5 4.9 12.5 12.5 0 0 1-1.9 3.4 12 12 0 0 1-2.9 2.6 13.53 13.53 0 0 1-3.8 1.7 17 17 0 0 1-4.6.6h-6.1zM79.8 180.9h7a17.21 17.21 0 0 1 5.1.6 6 6 0 0 1 2.7 1.7 4.51 4.51 0 0 1 1 2.7 9 9 0 0 1-.6 3.6 11.61 11.61 0 0 1-2 3.5 12.38 12.38 0 0 1-2.9 2.5 13.22 13.22 0 0 1-3.5 1.5 16.34 16.34 0 0 1-4.4.5h-8.6z" fill="#393b42"/></symbol><symbol id="icon-wechat-2b423" viewBox="0 0 380 380"><title>wechat</title><path d="M380 59.8A59.8 59.8 0 0 0 320.2 0H59.8A59.8 59.8 0 0 0 0 59.8v260.4A59.8 59.8 0 0 0 59.8 380h260.4a59.8 59.8 0 0 0 59.8-59.8z" fill="#2dc100"/><path d="M237.5 92.9c-15.1-19.7-36.6-33.7-60.6-40.8a126.75 126.75 0 0 0-74.7 1c-18.7 6.1-34.9 15.1-47.7 27.6s-21.1 26.5-26.4 44.8c-5.9 20.4-4.9 40.5 2.2 58.9s20.5 35 39.2 48.3c2.1 1.5 3.2 2.7 3.6 3.9s.2 2.9-.5 5.1c-1.7 5.8-3 11.8-4.3 18.3-.6 2.9-1.2 5.9-1.8 8.8l-2.1 9.4 8.1-5.1 9.8-6.2c7.9-5 15.3-9.7 22.4-13.7a11.55 11.55 0 0 1 3.7-1.2 21.05 21.05 0 0 1 5.2-.2c7.8.7 15.3 1.6 23.1 2.7l9.9 1.3 4.9.6-.4-5c-1.3-15.2.4-28.8 5-41.2s12-23.4 22.3-33.4a100.85 100.85 0 0 1 34-21.9c12.5-4.9 26.1-7.5 40.7-8.2l4.2-.2-.4-4.2a94.47 94.47 0 0 0-6.3-26.5 96.29 96.29 0 0 0-13.2-23zM187 112.7a17.51 17.51 0 0 1 12.3 4.9 17.31 17.31 0 0 1 5.3 12.2 17.31 17.31 0 0 1-16.9 17.7h-.4a17.77 17.77 0 0 1-12.6-4.9 17.1 17.1 0 0 1-.82-24.17c.17-.18.34-.36.52-.53a18 18 0 0 1 12.4-5.4h.2zm-73 5.5a17.21 17.21 0 0 1 4.9 12.3 17.29 17.29 0 0 1-5.7 12.1 18 18 0 0 1-12.6 4.7h-.1a17.5 17.5 0 0 1-12.3-5.4 17.28 17.28 0 0 1-4.7-12.5 17.26 17.26 0 0 1 5.5-12.2 17.73 17.73 0 0 1 12.6-4.7h.2A17.92 17.92 0 0 1 114 118z" fill="#fffffe"/><path d="M330.9 192.5c-14.3-18.5-36.5-30-60.2-33.5s-49 .9-69.4 14.3a94.45 94.45 0 0 0-17.6 14.8c-12 13-18.9 28.5-20.3 44.3a73.1 73.1 0 0 0 12 46.6 88.67 88.67 0 0 0 14 16.5 92.12 92.12 0 0 0 34.1 20.4 97.13 97.13 0 0 0 40.4 3.9 67.31 67.31 0 0 0 11.3-2.6c6-1.7 12-3.4 18.2-2.8s13.7 4.2 20.3 7.7c-2.3-5.3-2.7-9.8-1.3-14.2s5-9.2 10.2-13.7c15.1-13.4 23.4-30.6 24.9-48.5s-4-36.9-16.5-53zM271.5 203a14.89 14.89 0 0 1 10.5-4.2h.5a14.92 14.92 0 0 1 10.4 4.7 15.27 15.27 0 0 1 4.1 10.6v.5a14.91 14.91 0 0 1-15.1 14.5h-.6a14.91 14.91 0 0 1-10.3-4.6 15.21 15.21 0 0 1-4.1-10.5v-.6a15.21 15.21 0 0 1 4.7-10.3zm-58.7-4.2a15.3 15.3 0 0 1 14.7 15.2v.5a15.1 15.1 0 0 1-4.7 10.4 15.3 15.3 0 0 1-21.2-.1 15.1 15.1 0 0 1-4.7-10.4v-.6a15.57 15.57 0 0 1 14.8-15.2h1.1z" fill="#fffffe"/></symbol><symbol id="icon-account-d53ec" viewBox="0 0 128 128"><path d="M87.84 74.12l-.35-.12q-1.26-.54-2.55-1c-.94-.36-1.9-.69-2.86-1-.77-.24-1.54-.46-2.32-.67-1.18-.33-2.38-.62-3.61-.88l-1.27-.24h-.29c-.73-.13-1.46-.25-2.2-.36h-.43c-.61-.09-1.22-.17-1.86-.24l-2.17-.17a63.27 63.27 0 0 0-8 0l-.77.07h-.36l-.9.08c-.82.08-1.64.19-2.45.31h-.24l-1.67.29c-.61.1-1.21.21-1.82.34-1.16.25-2.32.53-3.44.84-.9.24-1.78.51-2.61.78l-.57.2c-1.76.59-3.51 1.26-5.2 2l-.45.2c-19.78 9-32.53 28.08-32.53 48.82 0 .47 0 .94.06 1.41l.09 3.22h113.86l.15-3.25c0-.48.06-1 .06-1.45 0-21.07-13.06-40.3-33.3-49.18z"/><circle cx="64" cy="29.71" r="29.71"/></symbol><symbol id="icon-amex-420de" viewBox="0 0 63 35"><path d="M59 35H4.4c-2.2 0-4-1.8-4-4V4.1c0-2.2 1.8-4 4-4H59c2.2 0 4 1.8 4 4V31c0 2.2-1.8 4-4 4zM4.4.8C2.6.8 1.1 2.3 1.1 4.1V31c0 1.8 1.5 3.3 3.3 3.3H59c1.8 0 3.3-1.5 3.3-3.3V4.1c0-1.8-1.5-3.3-3.3-3.3H4.4z"/><path fill="#8D8D8D" d="M4.9 16.5h40v4.7h-40z"/><path d="M4.4 28.1h33.2v1.4H4.4zm0 2.9h11.4v1.4H4.4z"/><circle fill="#49A02E" cx="36.1" cy="10.4" r="2.3"/><circle fill="#49A02E" cx="43.2" cy="10.4" r="2.3"/><circle fill="#49A02E" cx="50.3" cy="10.4" r="2.3"/><circle fill="#49A02E" cx="57.4" cy="10.4" r="2.3"/></symbol><symbol id="icon-bag-6bb6b" viewBox="0 0 128 128"><path d="M107.76 39.73H92.38V29.55C92.38 13.26 79.71 0 64.13 0S35.89 13.26 35.89 29.55v10.18H20.24a4.8 4.8 0 0 0-4.79 4.79v78.68a4.81 4.81 0 0 0 4.79 4.8h87.52a4.81 4.81 0 0 0 4.79-4.8V44.52a4.8 4.8 0 0 0-4.79-4.79zM46.82 29.55c0-10 7.77-18.18 17.31-18.18s17.31 8.16 17.31 18.18v10.18H46.82zM41 62.92a7 7 0 1 1 7-7 7 7 0 0 1-7 7zm46.31 0a7 7 0 1 1 7-7 7 7 0 0 1-6.97 7z"/></symbol><symbol id="icon-check-mark-a894a" viewBox="0 0 24 24"><path d="M9 22L-1 11.402l2.798-2.859 7.149 7.473L22.091 2 25 4.806z"/></symbol><symbol id="icon-check-rounded-98274" viewBox="0 0 14 11.2"><path fill="#0FA44A" d="M4.1 11.2c-.1 0-.3-.1-.4-.2L.1 6.9c-.1-.2-.1-.5.1-.7.2-.2.5-.2.7.1L4.2 10l9-9.7c.2-.2.5-.2.7 0 .2.2.2.5 0 .7L4.5 11c-.1.1-.2.2-.4.2z"/></symbol><symbol id="icon-customer-service-10ff3" viewBox="0 0 128 128"><path d="M113.34 95.54a212.64 212.64 0 0 0-16.5-14.67L84.42 93.3 34.7 43.58l12.43-12.42a212.64 212.64 0 0 0-14.67-16.5A210.1 210.1 0 0 0 16 0S1.08 13.7.08 24.56C-1.26 39.1 14.13 65.54 38.3 89.7s50.6 39.56 65.14 38.22C114.3 126.92 128 112 128 112a210.1 210.1 0 0 0-14.66-16.46z"/></symbol><symbol id="icon-down-arrow-27256" viewBox="0 0 512 512"><path d="M98.9 184.7l1.8 2.1 136 156.5c4.6 5.3 11.5 8.6 19.2 8.6 7.7 0 14.6-3.4 19.2-8.6L411 187.1l2.3-2.6c1.7-2.5 2.7-5.5 2.7-8.7 0-8.7-7.4-15.8-16.6-15.8H112.6c-9.2 0-16.6 7.1-16.6 15.8 0 3.3 1.1 6.4 2.9 8.9z"/></symbol><symbol id="icon-favourite-outline-87827" viewBox="0 0 128 128"><path d="M128 50.47H79.77L64 3.2 48.22 50.47H0l39.58 27.79-14.82 46.54L64 96.2l39.24 28.6-14.82-46.54zM91.12 108L64 88.22 36.88 108l10.28-32.3-26.78-18.79h32.49L64 23.56l11.13 33.35h32.49L80.84 75.7z"/></symbol><symbol id="icon-favourite-8c624" viewBox="0 0 128 128"><path d="M128 50.47H79.77L64 3.2 48.22 50.47H0l39.58 27.79-14.82 46.54L64 96.2l39.24 28.6-14.82-46.54z"/></symbol><symbol id="icon-info-4f70d" viewBox="0 0 24 24"><path fill="#8D8D8D" d="M12 0C5.4 0 0 5.4 0 12s5.4 12 12 12 12-5.4 12-12S18.6 0 12 0zm0 23C5.9 23 1 18.1 1 12S5.9 1 12 1s11 4.9 11 11-4.9 11-11 11z"/><path fill="#8D8D8D" d="M12.9 8c0 .4-.3.8-.8.8-.4 0-.7-.3-.7-.8 0-.4.3-.8.8-.8.4.1.7.4.7.8zm-1.4 8.7V9.9h1.2v6.8h-1.2z"/></symbol><symbol id="icon-mail-1e6a9" viewBox="0 0 24 24"><path d="M12 12.713L.015 3h23.971L12 12.713zm-5.425-1.822L0 5.562v12.501l6.575-7.172zm10.85 0L24 18.063V5.562l-6.575 5.329zm-1.557 1.261L12 15.287l-3.868-3.135L.022 21h23.956l-8.11-8.848z"/></symbol><symbol id="icon-pin-01443" viewBox="0 0 20 24"><path d="M19.972 11.817l-.028.074.01-.021.008-.021a.208.208 0 0 0 .01-.032zm-20.238-.072a.31.31 0 0 0 .006.02c0 .001 0 .002-.002-.003zm.924-.434l.049.044v.157a.671.671 0 0 1 .014.087c.474 1.992 2.209 4.628 4.755 7.555 1.566 1.801 3.71 3.948 4.068 4.222.086.082.2.127.33.124a.537.537 0 0 0 .317-.112l.069-.07c4.234-4.017 7.97-8.501 8.728-11.644.008-.092.01-.097.027-.147l.013-.034c.125-.55.182-1.158.182-1.862a9.057 9.057 0 0 0-2.735-6.463h-.001C14.717 1.444 12.37.5 9.854.5 4.695.5.5 4.59.5 9.611c0 .597.052 1.165.158 1.7zm.049.25zm9.147 1.717a4.366 4.366 0 0 1-4.359-4.36 4.354 4.354 0 0 1 4.36-4.36 4.366 4.366 0 0 1 4.36 4.36 4.366 4.366 0 0 1-4.36 4.36h-.001z" stroke="#000"/></symbol><symbol id="icon-print-5764c" viewBox="0 0 128 128"><path d="M109.71 81.43V30L79.47 0H18.29v81.43H0V128h128V81.43zM79.47 10.31l19.87 19.74H79.47zm-53.87-3h46.55v30.06h30.25v44H25.6zm95.08 113.36H7.32V88.74h113.36z"/><path d="M18.29 102.04h91.42v7.32H18.29z"/></symbol><symbol id="icon-search-ba782" viewBox="0 0 128 128"><path d="M126.88 111L96.44 80.31a52.68 52.68 0 0 0 7.75-27.56C104.19 23.66 80.82 0 52.09 0S0 23.66 0 52.75s23.37 52.75 52.09 52.75a51 51 0 0 0 28.93-9l15.91 16.12a8.16 8.16 0 0 0 .87.74l13.38 13.45a4 4 0 0 0 5.71-.06l10-10.1a4.12 4.12 0 0 0 0-5.66zM76.55 72.27a32.62 32.62 0 0 1-4.5 4.73 31 31 0 1 1 4.5-4.72z"/></symbol><symbol id="icon-share-97def" viewBox="0 0 128 128"><path d="M102.73 44.73A19.13 19.13 0 0 0 89.58 50L44 23.66a19.25 19.25 0 1 0-18.73 14.89 19.14 19.14 0 0 0 13.15-5.26L84 59.61a17.8 17.8 0 0 0 0 8.78L38.42 94.71a19.65 19.65 0 1 0 5.58 9.63L89.58 78a19.25 19.25 0 1 0 13.15-33.29z"/></symbol><symbol id="icon-Facebook-574fc" viewBox="0 0 128 128"><style>.st0{fill-rule:evenodd;clip-rule:evenodd}</style><path class="st0" d="M73.6 38.3V28.1c0-4.9 3.3-6.1 5.6-6.1h14.4V0H73.8c-22 0-26.9 16.3-26.9 26.8v11.5H34.1V64H47v64h25.6V64h19l.8-10.1 1.5-15.6H73.6z" id="icon-Facebook-574fcFacebook"/></symbol><symbol id="icon-GooglePlus-1e554" viewBox="0 0 128 128"><style>.st0{fill-rule:evenodd;clip-rule:evenodd}</style><path class="st0" d="M76.2 55.6c-8.9.1-17.7.1-26.6.1-2.5 0-5.1-.1-7.6 0-.5 0-1.3.6-1.3.9-.1 5.1-.1 10.3-.1 15.6h21.7c-.2 1.1-.4 1.9-.7 2.6-3.4 9.9-13.6 14.8-24.6 13C23.4 85.5 15 73 17.5 59.4c.3-1.9.9-3.8 1.6-5.5C23.6 44 34.8 38 45.8 40.5c3.9.9 7.3 2.7 10.2 5.3l11.9-11.9c-.3-.2-.7-.5-1-.9-9.6-8.1-20.6-11.1-32.9-9C16.2 26.8 3.4 40.8.7 57.1-.6 64 0 71.4 2.7 78.6c6.8 17.3 24.2 27.9 42.9 25.8 9.1-1 17.3-4.3 23.5-11 9.4-10 11.9-22 10.3-35.3-.3-2.1-1.2-2.5-3.2-2.5zm51.8 1.1h-14.2V42.5h-10.4v14.2H89.3v10.4h14.2v14.2h10.4V67.1H128V56.7z" id="icon-GooglePlus-1e554Google_x2B_"/></symbol><symbol id="icon-Instagram-c5982" viewBox="0 0 128 128"><style>.st0{fill-rule:evenodd;clip-rule:evenodd}</style><g id="icon-Instagram-c5982Instagram"><path d="M64 31.4C46 31.4 31.4 46 31.4 64S46 96.6 64 96.6 96.6 82 96.6 64 82 31.4 64 31.4zM83.2 64c0 10.6-8.6 19.2-19.2 19.2S44.8 74.6 44.8 64 53.4 44.8 64 44.8 83.2 53.4 83.2 64z"/><path d="M127.6 38c-.3-6.2-1.2-11-3-15.6-1.8-4.5-4.1-8.1-7.5-11.5-3.4-3.4-7-5.7-11.5-7.5C101 1.6 96.2.7 90 .4 83.1.1 80.9 0 64 0 47 0 44.8.1 38 .4c-6.2.3-11 1.2-15.6 3-4.5 1.8-8.1 4.1-11.5 7.5-3.4 3.4-5.7 7-7.5 11.5C1.6 27 .7 31.8.4 38 .1 44.8 0 47 0 64s.1 19.2.4 26c.3 6.2 1.2 11 3 15.6s4.1 8.1 7.5 11.5c3.4 3.4 7 5.7 11.5 7.5 4.6 1.8 9.4 2.7 15.6 3 6.8.3 9.1.4 26 .4 17.1 0 19.3-.1 26-.4 6.2-.3 11-1.2 15.6-3s8.1-4.1 11.5-7.5c3.4-3.4 5.7-7 7.5-11.5 1.8-4.6 2.7-9.4 3-15.6.3-6.7.4-9 .4-26s-.1-19.2-.4-26zm-13.3 26c0 16.8-.1 18.8-.4 25.3-.3 5.9-1.3 9.2-2.1 11.3-1.1 2.8-2.4 4.7-4.4 6.8-2.1 2.1-4 3.4-6.8 4.4-2.1.8-5.3 1.8-11.3 2.1-6.5.3-8.5.4-25.3.4-16.9 0-18.9-.1-25.3-.4-6-.3-9.2-1.3-11.3-2.1-2.8-1.1-4.7-2.4-6.8-4.4-2.1-2.1-3.4-4.1-4.4-6.8-.8-2.1-1.8-5.3-2.1-11.3-.3-6.5-.4-8.5-.4-25.3 0-16.7.1-18.7.4-25.3.3-5.9 1.3-9.2 2.1-11.3 1.1-2.8 2.4-4.8 4.4-6.8 2.1-2.1 4.1-3.4 6.8-4.4 2.1-.8 5.3-1.8 11.3-2.1 6.5-.3 8.4-.4 25.3-.4 16.7 0 18.7.1 25.3.4 5.9.3 9.2 1.3 11.3 2.1 2.8 1.1 4.7 2.4 6.8 4.4 2.1 2.1 3.4 4 4.4 6.8.8 2.1 1.8 5.3 2.1 11.3.4 6.5.4 8.5.4 25.3z"/><path d="M97.5 23c-4.1 0-7.5 3.3-7.5 7.5 0 4.1 3.3 7.5 7.5 7.5 4.1 0 7.5-3.3 7.5-7.5s-3.3-7.5-7.5-7.5z"/></g></symbol><symbol id="icon-LinkedIn-587d7" viewBox="0 0 128 128"><style>.st0{fill-rule:evenodd;clip-rule:evenodd}</style><path class="st0" d="M0 65.3V128h29.8V42.6H0v22.7zm127.3 3.6c-2-16.2-9.3-26.2-31.2-26.2-12.8 0-21.4 4.7-25 11.5h-.4V42.6H46.9V128h24.9V85.7c0-11.2 2.2-21.9 15.9-21.9s14.8 12.7 14.8 22.7V128H128V81.1c0-4.4-.2-8.5-.7-12.2zM14.9 0C6.7 0 0 6.7 0 14.9s6.7 14.9 14.9 14.9 14.9-6.7 14.9-14.9S23.2 0 14.9 0z" id="icon-LinkedIn-587d7Linkedin"/></symbol><symbol id="icon-Pinterest-b6324" viewBox="0 0 128 128"><style>.st0{fill-rule:evenodd;clip-rule:evenodd}</style><path class="st0" d="M67 0C31 0 12.8 24.9 12.8 45.9c0 3.9.4 7.6 1.4 11C16.3 64.8 21 71.1 28.3 74c1.7.8 3.3 0 3.8-1.8.4-1.3 1.2-4.5 1.6-5.9.6-1.9.3-2.5-1-4.1-1.8-2.2-3.3-4.6-4.2-7.6-.6-2-.9-4.2-.9-6.8 0-18.6 14.4-35.2 37.5-35.2 20.4 0 31.6 12 31.6 28.1 0 4.8-.5 9.3-1.4 13.6C92 69.1 83.7 79.8 72.5 79.8c-7.9 0-14-6.3-12-14.2 1.1-4.4 2.7-9 4.1-13.4 1.5-4.7 2.7-9.2 2.7-12.6 0-6.1-3.3-11-10.4-11-8.1 0-14.7 8.2-14.7 19 0 2 .2 4 .5 5.4.8 3.9 1.9 6.3 1.9 6.3s-8.2 34-9.6 40c-2.9 11.9-.4 26.5-.2 27.9.1.8 1.2 1 1.8.4.8-1 10.4-12.4 13.8-24 .8-3.3 5.4-20.3 5.4-20.3 2.6 4.9 10.3 9.2 18.6 9.2 19.8 0 34.5-14.4 39.3-35.3 1.1-4.7 1.7-9.9 1.7-15.1C115.2 20.2 96.1 0 67 0z" id="icon-Pinterest-b6324Pinterest"/></symbol><symbol id="icon-Twitter-45c70" viewBox="0 0 128 128"><style>.st0{fill-rule:evenodd;clip-rule:evenodd}</style><path class="st0" d="M128 25c-4.7 2-9.7 3.4-15.1 4.1 5.5-3.3 9.6-8.3 11.6-14.4-5.1 3-10.8 5.1-16.7 6.3-4.7-5.1-11.6-8.2-19.2-8.2-14.4 0-26.2 11.6-26.2 25.8 0 2.1.4 4 .8 5.9-21.9-1-41.2-11.3-54.1-27-2.2 3.9-3.6 8.3-3.6 13 0 9 4.7 16.9 11.7 21.5-4.3-.1-8.3-1.3-11.9-3.2v.3c0 3.3.6 6.4 1.8 9.3 3.2 8.1 10.5 14.2 19.3 16-2.3.6-4.5 1-6.9 1-1.7 0-3.3-.2-4.9-.6 3.4 10.3 13.1 17.8 24.5 18-9 6.9-20.3 11-32.6 11-2.2 0-4.2-.1-6.3-.3 11.7 7.3 25.5 11.6 40.3 11.6 41 0 66.4-28.4 73-57.9 1.2-5.3 1.7-10.5 1.7-15.6v-3.3c4.8-3.6 9.3-8.2 12.8-13.3z" id="icon-Twitter-45c70Twitter"/></symbol><symbol id="icon-Weibo-9d7ea" viewBox="0 0 128 128"><style>.st0{fill-rule:evenodd;clip-rule:evenodd}</style><path d="M96.7 65.4c-4.9-2.1-4.9-2.1-3.7-7.2 2-8.4-1.8-13.9-10.5-13.8-4.7 0-9.3 1.4-14 2.4-2.4.5-4.6 1.5-7.5 2.6.5-4 1.1-7.2 1.1-10.3 0-6-3.8-9.9-9.7-9.5-3.6.2-7.5 1-10.8 2.5-18 8.5-31.4 21.7-39.3 40C.6 76-.1 80.9 0 85.5c.3 10.6 6.7 17.8 15.2 23.1 18.1 11.3 37.6 13 57.9 7.6 12.5-3.4 23.3-9.7 31.1-20.3 9.1-12.4 6-24.9-7.5-30.5zM84.2 93.6c-3.7 5.3-8.8 9-14.7 11.6-13.3 5.8-26.8 6.6-40.5 1.6-3.1-1.1-6-2.9-8.6-4.8-9.8-7.3-10.9-19.1-2.6-28.1 7.4-8.1 17-11.8 27.6-13.4 2.6-.4 5.2-.4 7.4-.6 11.3.4 21.6 2.4 29.6 10.6 6.7 6.6 7.2 15.4 1.8 23.1zM128 45.9c.1 3.5-1.4 5.6-4.1 5.8-2.9.2-4.7-1.9-4.9-5.5-.8-15.8-12.5-27.5-28.4-28.4-3.8-.2-5.7-1.9-5.6-4.8.2-2.9 2.3-4.4 6-4.2 20.4 1.1 36.3 16.9 37 37.1zm-18.2-.4c.8 3.2-.3 5.4-2.9 6.2-2.7.7-4.9-.6-5.7-3.7-1.8-6.7-6.1-10.8-12.8-12.6-2.6-.7-4-2.3-3.6-4.9.3-2.4 1.8-3.8 5.2-3.9 1 .3 2.9.7 4.6 1.4 7.9 3.4 13 9.2 15.2 17.5zm-53.4 48c-4.8 5.3-13.4 7.1-19.9 4.1-8.4-3.8-9.9-13.6-3-19.8 3.5-3.1 7.6-4.5 12.3-4.8 2 .5 4.1.7 6 1.4 8.3 3 10.6 12.5 4.6 19.1z" id="icon-Weibo-9d7eaWeibo"/></symbol><symbol id="icon-YouTube-3aa22" viewBox="0 0 128 128"><style>.st0{fill-rule:evenodd;clip-rule:evenodd}</style><path class="st0" d="M126.8 37.3s-1.3-9.2-5.1-13.3c-4.9-5.3-10.3-5.3-12.8-5.7C91 17 64.2 17 64.2 17H64s-26.8 0-44.7 1.3c-2.6.3-8 .4-12.8 5.7-3.8 4-5.1 13.3-5.1 13.3S0 48.1 0 58.8V69c0 10.8 1.3 21.5 1.3 21.5s1.3 9.2 5.1 13.3c4.9 5.3 11.2 5.1 14.2 5.7 10.2 1 43.5 1.4 43.5 1.4s26.8-.1 44.7-1.4c2.4-.3 7.9-.3 12.8-5.7 3.8-4.1 5.1-13.3 5.1-13.3S128 79.9 128 69V58.8c0-10.7-1.2-21.5-1.2-21.5zM90.3 62.6L45.9 86.5v-48l20.1 11 24.3 13.1z" id="icon-YouTube-3aa22YouTube"/></symbol><symbol id="icon-visa-d9343" viewBox="0 0 64 35"><path d="M59.4 0H4.6c-2.2 0-4 1.8-4 4v27c0 2.2 1.8 4 4 4h54.9c2.2 0 4-1.8 4-4V4c-.1-2.2-1.9-4-4.1-4zM1.3 4C1.3 2.2 2.8.7 4.6.7h54.9c1.8 0 3.3 1.5 3.3 3.3v3.1H1.3V4zm58.1 30.3H4.6c-1.8 0-3.3-1.5-3.3-3.3V16h61.4v15c0 1.8-1.5 3.3-3.3 3.3z"/><path fill="#8D8D8D" d="M5.1 20.2h32.6V25H5.1z"/><circle fill="#49A02E" cx="43.9" cy="22.6" r="2.4"/><circle fill="#49A02E" cx="50.8" cy="22.6" r="2.4"/><circle fill="#49A02E" cx="57.7" cy="22.6" r="2.4"/></symbol><symbol id="icon-roberto-cavalli-1090a" viewBox="0 0 128 23.6"><path d="M127.8 4.2c-.2-.1-.4-.2-.6-.2h-1c-.2 0-.4 0-.6.2-.2.2-.2.4-.2.7v17.6c0 .2 0 .5.2.7.2.1.4.2.6.2h1c.2 0 .4 0 .6-.2.2-.2.2-.4.2-.7V4.9c0-.2-.1-.5-.2-.7zM122.7 0h-1c-.2 0-.4 0-.6.2-.2.2-.2.4-.2.7v21.6c0 .2 0 .5.2.7.2.1.4.2.6.2h1c.2 0 .4 0 .6-.2.2-.2.2-.4.2-.7V.9c0-.2 0-.5-.2-.7-.2-.1-.4-.2-.6-.2zM28.4 7C27.8 5.1 26 3.9 24 3.9c-.9 0-1.8.3-2.4.9-.3.2-.5.5-.6.7-.1.1-.1.2-.2.2V.9c0-.2 0-.5-.2-.7-.1-.1-.3-.2-.6-.2h-1c-.2 0-.4 0-.6.2-.2.2-.2.4-.2.7v13.2c-.1 2.2.2 4.3.9 6.4.8 1.9 2.6 3.1 4.6 3 2 0 3.8-1.2 4.6-3.1.7-2.2 1.1-4.4 1-6.7.1-2.2-.2-4.5-.9-6.7zm-2.8 13.1c-.4.6-1.1 1-1.9 1-.8 0-1.5-.4-1.9-1-.7-1-1-2.9-1-6 0-3.7.3-5.7 1-6.7.4-.6 1.2-1 1.9-1 .8 0 1.5.4 1.9 1 .7.9 1 3.1 1 6.3.1 3.3-.3 5.4-1 6.4zM126.2 3h1c.2 0 .4 0 .6-.2.2-.2.2-.4.2-.6V.9c0-.2 0-.5-.2-.7-.2-.1-.4-.2-.6-.2h-1c-.2 0-.4 0-.6.2-.2.2-.2.4-.2.7v1.3c0 .2 0 .5.2.7.2.1.4.2.6.1zM40.5 17.1h-.9c-.2 0-.4 0-.6.2-.1.2-.2.4-.2.6-.1.8-.3 1.5-.8 2.2-.4.6-1.2 1-1.9 1H36c-.8 0-1.5-.4-2-1-.5-.8-.8-1.8-.9-2.8v-.5l.3-.3 6.9-5c.2-.2.5-.4.6-.7.1-.3.2-.7.2-1.1 0-.9-.2-1.8-.5-2.7-.8-1.9-2.6-3.1-4.7-3-2 0-3.9 1.2-4.7 3.1-.8 2.1-1.1 4.4-1 6.7-.1 2.3.2 4.6 1 6.7.8 1.9 2.6 3.1 4.7 3.1 2 0 3.8-1.2 4.6-3.1.3-.8.5-1.6.6-2.4 0-.2 0-.5-.2-.7 0-.2-.2-.3-.4-.3zM33 13.5c-.1-2.9.3-5.1 1.1-6.1.4-.6 1.2-1 1.9-1h.1c.7 0 1.4.4 1.8 1 .3.6.5 1.2.6 1.8v.5c0 .1-.1.2-.2.3l-4.8 3.5c-.1.1-.3.2-.4.2-.1.1-.1-.1-.1-.2zM6 5.8v-.9c0-.2 0-.4-.2-.6-.2-.2-.4-.2-.6-.2H5c-3.1 0-5 2.5-5 6.3v12.1c0 .2 0 .5.2.7.2.1.4.2.6.2h1c.2 0 .4 0 .6-.2.2-.2.2-.4.2-.7V10.2C2.5 8 3.4 6.7 5 6.6h.1c.2 0 .5-.1.6-.2.2-.2.3-.4.3-.6zM16 7c-.8-1.9-2.6-3.1-4.6-3.1-2 0-3.9 1.2-4.7 3.1-.8 2.1-1.1 4.4-1 6.7-.1 2.3.2 4.6 1 6.7.8 1.9 2.6 3.1 4.7 3.1 2 0 3.9-1.2 4.7-3.1.7-2.1 1.1-4.4.9-6.6.1-2.3-.2-4.6-1-6.8zm-2.6 13c-.5.6-1.2 1-2 1s-1.5-.4-2-1c-.7-1-1.1-3-1.1-6.3s.3-5.4 1.1-6.3c.4-.6 1.2-1 2-1s1.5.4 2 1c.7.9 1.1 3.1 1.1 6.3s-.5 5.4-1.1 6.3zM54 5.8v-.9c0-.2 0-.5-.2-.6-.2-.2-.4-.2-.6-.2H52c-.1 0-.2 0-.2-.1-.1-.1-.1-.2-.1-.2V1.6c0-.2 0-.5-.2-.7-.2-.1-.4-.2-.6-.2h-1c-.2 0-.4 0-.6.2-.2.2-.2.4-.2.7v20.9c0 .2 0 .5.2.7.2.1.4.2.6.2h1c.2 0 .4 0 .6-.2.2-.2.2-.4.2-.7V6.9c0-.1 0-.2.1-.2.1-.1.2-.1.2-.1h1.2c.2 0 .4-.1.6-.2.1-.2.2-.4.2-.6zm26.2 11.3h-.9c-.2 0-.4 0-.6.2-.2.2-.2.4-.2.6-.1.8-.3 1.5-.7 2.1-.4.6-1.2 1-1.9 1-.8 0-1.5-.4-2-1-.7-1-1.1-3-1.1-6.3s.3-5.4 1.1-6.3c.5-.6 1.2-1 2-1s1.5.4 1.9 1c.4.7.7 1.4.8 2.2.1.4.1.5.2.6.2.1.4.1.6.1h.8c.2 0 .5 0 .7-.2.1-.2.1-.5.1-.7-.1-.8-.3-1.6-.6-2.4-1.1-2.6-4.1-3.8-6.7-2.6-1.2.5-2.1 1.4-2.7 2.6-.8 2.1-1.1 4.4-1 6.7-.1 2.3.2 4.6 1 6.7.8 1.9 2.6 3.1 4.7 3.1 2 0 3.8-1.2 4.6-3.1.3-.8.5-1.6.6-2.4.1-.2 0-.5-.1-.7-.2-.2-.4-.2-.6-.2zm29.2-13.2c-2-.1-3.9 1.2-4.6 3.1-.3.8-.5 1.6-.6 2.4-.1.2 0 .5.1.7.2.1.4.2.7.2h.8c.2 0 .5 0 .7-.2.1-.2.2-.4.2-.6 0-.7.3-1.5.7-2.1.5-.6 1.3-1 2.1-1 .7 0 1.4.3 1.9.8.3.4.4.8.4 1.3 0 .9-.5 1.8-1.3 2.2-.3.2-.9.5-1.4.9-.6.3-1.5.9-2.4 1.5-2.9 2-3.3 4-3.3 5.8-.1 1.3.5 2.6 1.5 3.5 1 .8 2.2 1.2 3.4 1.1 1.1 0 2.2-.4 3.1-1l.1-.1c.1-.1.2-.1.2-.1v.3c0 .2 0 .5.2.7.2.1.4.2.6.2h1c.2 0 .4 0 .6-.2.2-.2.2-.4.2-.6V10c.1-1.1 0-2.1-.3-3.2-.7-1.9-2.6-3-4.6-2.9zm1.5 16.3c-.6.6-1.4.9-2.2.9h-.1c-.8.1-1.5-.2-2-.8-.4-.5-.5-1-.5-1.6 0-1.4.7-2.7 1.8-3.5.9-.7 1.8-1.3 2.8-1.8l.5-.3c.2-.1.4-.3.6-.3.1 0 .1.2.1.4l.1 4.6c-.1.8-.4 1.7-1.1 2.4zM64 7c-.8-1.8-2.6-3.1-4.6-3.1-2 0-3.9 1.2-4.7 3.1-.8 2.1-1.1 4.4-1 6.7-.1 2.3.2 4.6 1 6.7.8 1.9 2.6 3.1 4.7 3.1 2 0 3.9-1.2 4.7-3.1.7-2.1 1.1-4.4.9-6.6.1-2.3-.2-4.6-1-6.8zm-2.6 13c-.5.6-1.2 1-2 1s-1.5-.4-2-1c-.7-1-1.1-3-1.1-6.3s.3-5.4 1.1-6.3c.5-.6 1.2-1 2-1s1.5.4 2 1c.7.9 1.1 3.1 1.1 6.3s-.5 5.4-1.1 6.3zm56.8-20h-1c-.2 0-.4 0-.6.2-.2.2-.2.4-.2.7v21.6c0 .2 0 .5.2.7.2.1.4.2.6.2h1c.2 0 .4 0 .6-.2.2-.2.2-.4.2-.7V.9c0-.2 0-.5-.2-.7-.2-.1-.4-.2-.6-.2zM47.4 4.1c-3.1 0-5.1 2.5-5.1 6.3v12.1c0 .2 0 .5.2.7.2.1.4.2.6.2h1c.2 0 .4 0 .6-.2.2-.2.2-.4.2-.7V10.2c0-2.2.9-3.5 2.5-3.7h.1c.2 0 .5-.1.7-.2.1-.2.2-.4.2-.6v-.8c0-.2 0-.4-.2-.6-.3-.2-.5-.3-.8-.2zm56.3.1c-.2-.1-.4-.2-.6-.2h-1c-.2 0-.5 0-.6.2-.1.2-.2.5-.2.7l-2.6 12.8L95.9 5c0-.2-.1-.5-.2-.7-.1-.2-.4-.2-.6-.2h-1c-.2 0-.4 0-.6.2-.2.2-.1.4-.1.7l3.9 17.7c0 .2.1.4.3.6.2.1.4.2.6.2h1c.2 0 .4 0 .5-.2.2-.2.3-.4.3-.6L103.9 5c-.1-.3-.1-.6-.2-.8zm-16-.3c-2-.1-3.9 1.2-4.6 3.1-.3.8-.5 1.6-.6 2.4-.1.2 0 .5.1.7.2.1.4.2.7.2h.8c.2 0 .5 0 .7-.2.2-.1.2-.3.2-.6 0-.7.3-1.5.7-2.1.5-.6 1.3-1 2.1-1 .7 0 1.4.3 1.9.8.3.4.4.8.4 1.3 0 .9-.5 1.8-1.3 2.2-.4.2-.9.5-1.5.9-.6.3-1.5.9-2.3 1.5-2.9 2-3.3 4-3.3 5.8-.1 1.4.5 2.7 1.5 3.5 1 .8 2.2 1.2 3.4 1.1 1.1 0 2.2-.4 3.1-1.1l.1-.1c.1-.1.2-.1.2-.1v.3c0 .2 0 .5.2.7.2.1.4.2.6.2h1c.2 0 .4 0 .6-.2.2-.2.2-.4.2-.7V10c.1-1.1 0-2.1-.3-3.2-.7-1.9-2.6-3-4.6-2.9zm1.5 16.3c-.6.5-1.4.8-2.2.8h-.1c-.8.1-1.5-.2-2-.8-.4-.5-.5-1-.5-1.6 0-1.4.7-2.7 1.8-3.5.9-.7 1.8-1.3 2.8-1.8l.5-.3c.2-.1.4-.3.6-.3.1 0 .1.2.1.4l.1 4.6c-.1.9-.4 1.8-1.1 2.5z"/></symbol></defs><view id="view-icon-amex-1448c" viewBox="0 0 79.83 50"></view><view id="view-icon-aura-3e80c" viewBox="100 0 79.62 50"></view><view id="view-icon-diners-6e1e8" viewBox="200 0 79.62 50"></view><view id="view-icon-discover-cafe8" viewBox="300 0 77.84 50"></view><view id="view-icon-elo-6254a" viewBox="400 0 79.62 50"></view><view id="view-icon-hipercard-1d93e" viewBox="500 0 77.84 50"></view><view id="view-icon-jcb-78121" viewBox="600 0 79.62 50"></view><view id="view-icon-maestro-c1a7a" viewBox="700 0 79.62 50"></view><view id="view-icon-mastercard-e71d5" viewBox="800 0 79.62 50"></view><view id="view-icon-unionpay-b8094" viewBox="900 0 79.62 50"></view><view id="view-icon-visa-ab59f" viewBox="0 50 79.62 50"></view><view id="view-icon-default-3c5b1" viewBox="100 50 79.62 50"></view><view id="view-icon-alipay-9a095" viewBox="200 50 173.81 50"></view><view id="view-icon-applepay-aee48" viewBox="400 50 125.5 50"></view><view id="view-icon-boleto-63bed" viewBox="550 50 111.85 50"></view><view id="view-icon-ideal-9a873" viewBox="700 50 57.35 50"></view><view id="view-icon-paypal-c8068" viewBox="800 50 187.57 50"></view><view id="view-icon-sofort-73082" viewBox="0 100 161.28 50"></view><view id="view-icon-wechat-2b423" viewBox="200 100 50 50"></view><view id="view-icon-account-d53ec" viewBox="250 100 50 50"></view><view id="view-icon-amex-420de" viewBox="300 100 90 50"></view><view id="view-icon-bag-6bb6b" viewBox="400 100 50 50"></view><view id="view-icon-check-mark-a894a" viewBox="450 100 50 50"></view><view id="view-icon-check-rounded-98274" viewBox="500 100 62.5 50"></view><view id="view-icon-customer-service-10ff3" viewBox="600 100 50 50"></view><view id="view-icon-down-arrow-27256" viewBox="650 100 50 50"></view><view id="view-icon-favourite-outline-87827" viewBox="700 100 50 50"></view><view id="view-icon-favourite-8c624" viewBox="750 100 50 50"></view><view id="view-icon-info-4f70d" viewBox="800 100 50 50"></view><view id="view-icon-mail-1e6a9" viewBox="850 100 50 50"></view><view id="view-icon-pin-01443" viewBox="900 100 41.67 50"></view><view id="view-icon-print-5764c" viewBox="950 100 50 50"></view><view id="view-icon-search-ba782" viewBox="0 150 50 50"></view><view id="view-icon-share-97def" viewBox="50 150 50 50"></view><view id="view-icon-Facebook-574fc" viewBox="100 150 50 50"></view><view id="view-icon-GooglePlus-1e554" viewBox="150 150 50 50"></view><view id="view-icon-Instagram-c5982" viewBox="200 150 50 50"></view><view id="view-icon-LinkedIn-587d7" viewBox="250 150 50 50"></view><view id="view-icon-Pinterest-b6324" viewBox="300 150 50 50"></view><view id="view-icon-Twitter-45c70" viewBox="350 150 50 50"></view><view id="view-icon-Weibo-9d7ea" viewBox="400 150 50 50"></view><view id="view-icon-YouTube-3aa22" viewBox="450 150 50 50"></view><view id="view-icon-visa-d9343" viewBox="500 150 91.43 50"></view><view id="view-icon-roberto-cavalli-1090a" viewBox="600 150 271.19 50"></view><use id="icon-amex-1448c" xlink:href="#icon-amex-1448c" width="79.83" height="50" x="0" y="0"></use><use id="icon-aura-3e80c" xlink:href="#icon-aura-3e80c" width="79.62" height="50" x="100" y="0"></use><use id="icon-diners-6e1e8" xlink:href="#icon-diners-6e1e8" width="79.62" height="50" x="200" y="0"></use><use id="icon-discover-cafe8" xlink:href="#icon-discover-cafe8" width="77.84" height="50" x="300" y="0"></use><use id="icon-elo-6254a" xlink:href="#icon-elo-6254a" width="79.62" height="50" x="400" y="0"></use><use id="icon-hipercard-1d93e" xlink:href="#icon-hipercard-1d93e" width="77.84" height="50" x="500" y="0"></use><use id="icon-jcb-78121" xlink:href="#icon-jcb-78121" width="79.62" height="50" x="600" y="0"></use><use id="icon-maestro-c1a7a" xlink:href="#icon-maestro-c1a7a" width="79.62" height="50" x="700" y="0"></use><use id="icon-mastercard-e71d5" xlink:href="#icon-mastercard-e71d5" width="79.62" height="50" x="800" y="0"></use><use id="icon-unionpay-b8094" xlink:href="#icon-unionpay-b8094" width="79.62" height="50" x="900" y="0"></use><use id="icon-visa-ab59f" xlink:href="#icon-visa-ab59f" width="79.62" height="50" x="0" y="50"></use><use id="icon-default-3c5b1" xlink:href="#icon-default-3c5b1" width="79.62" height="50" x="100" y="50"></use><use id="icon-alipay-9a095" xlink:href="#icon-alipay-9a095" width="173.81" height="50" x="200" y="50"></use><use id="icon-applepay-aee48" xlink:href="#icon-applepay-aee48" width="125.5" height="50" x="400" y="50"></use><use id="icon-boleto-63bed" xlink:href="#icon-boleto-63bed" width="111.85" height="50" x="550" y="50"></use><use id="icon-ideal-9a873" xlink:href="#icon-ideal-9a873" width="57.35" height="50" x="700" y="50"></use><use id="icon-paypal-c8068" xlink:href="#icon-paypal-c8068" width="187.57" height="50" x="800" y="50"></use><use id="icon-sofort-73082" xlink:href="#icon-sofort-73082" width="161.28" height="50" x="0" y="100"></use><use id="icon-wechat-2b423" xlink:href="#icon-wechat-2b423" width="50" height="50" x="200" y="100"></use><use id="icon-account-d53ec" xlink:href="#icon-account-d53ec" width="50" height="50" x="250" y="100"></use><use id="icon-amex-420de" xlink:href="#icon-amex-420de" width="90" height="50" x="300" y="100"></use><use id="icon-bag-6bb6b" xlink:href="#icon-bag-6bb6b" width="50" height="50" x="400" y="100"></use><use id="icon-check-mark-a894a" xlink:href="#icon-check-mark-a894a" width="50" height="50" x="450" y="100"></use><use id="icon-check-rounded-98274" xlink:href="#icon-check-rounded-98274" width="62.5" height="50" x="500" y="100"></use><use id="icon-customer-service-10ff3" xlink:href="#icon-customer-service-10ff3" width="50" height="50" x="600" y="100"></use><use id="icon-down-arrow-27256" xlink:href="#icon-down-arrow-27256" width="50" height="50" x="650" y="100"></use><use id="icon-favourite-outline-87827" xlink:href="#icon-favourite-outline-87827" width="50" height="50" x="700" y="100"></use><use id="icon-favourite-8c624" xlink:href="#icon-favourite-8c624" width="50" height="50" x="750" y="100"></use><use id="icon-info-4f70d" xlink:href="#icon-info-4f70d" width="50" height="50" x="800" y="100"></use><use id="icon-mail-1e6a9" xlink:href="#icon-mail-1e6a9" width="50" height="50" x="850" y="100"></use><use id="icon-pin-01443" xlink:href="#icon-pin-01443" width="41.67" height="50" x="900" y="100"></use><use id="icon-print-5764c" xlink:href="#icon-print-5764c" width="50" height="50" x="950" y="100"></use><use id="icon-search-ba782" xlink:href="#icon-search-ba782" width="50" height="50" x="0" y="150"></use><use id="icon-share-97def" xlink:href="#icon-share-97def" width="50" height="50" x="50" y="150"></use><use id="icon-Facebook-574fc" xlink:href="#icon-Facebook-574fc" width="50" height="50" x="100" y="150"></use><use id="icon-GooglePlus-1e554" xlink:href="#icon-GooglePlus-1e554" width="50" height="50" x="150" y="150"></use><use id="icon-Instagram-c5982" xlink:href="#icon-Instagram-c5982" width="50" height="50" x="200" y="150"></use><use id="icon-LinkedIn-587d7" xlink:href="#icon-LinkedIn-587d7" width="50" height="50" x="250" y="150"></use><use id="icon-Pinterest-b6324" xlink:href="#icon-Pinterest-b6324" width="50" height="50" x="300" y="150"></use><use id="icon-Twitter-45c70" xlink:href="#icon-Twitter-45c70" width="50" height="50" x="350" y="150"></use><use id="icon-Weibo-9d7ea" xlink:href="#icon-Weibo-9d7ea" width="50" height="50" x="400" y="150"></use><use id="icon-YouTube-3aa22" xlink:href="#icon-YouTube-3aa22" width="50" height="50" x="450" y="150"></use><use id="icon-visa-d9343" xlink:href="#icon-visa-d9343" width="91.43" height="50" x="500" y="150"></use><use id="icon-roberto-cavalli-1090a" xlink:href="#icon-roberto-cavalli-1090a" width="271.19" height="50" x="600" y="150"></use></svg>